G04*
G04 #@! TF.GenerationSoftware,Altium Limited,Altium Designer,19.1.7 (138)*
G04*
G04 Layer_Color=16711935*
%FSLAX25Y25*%
%MOIN*%
G70*
G01*
G75*
%ADD10C,0.00500*%
%ADD12C,0.00400*%
%ADD36C,0.00787*%
G36*
X29398Y63303D02*
Y60347D01*
X35109D01*
Y63303D01*
X29398D01*
D02*
G37*
G36*
X29397Y69003D02*
Y66051D01*
X35109D01*
Y69003D01*
X29397D01*
D02*
G37*
D10*
X28554Y12910D02*
Y16690D01*
X35247Y12910D02*
Y16690D01*
X28554Y12910D02*
X35247D01*
X28554Y16690D02*
X35247D01*
X14104Y68101D02*
Y80699D01*
X20797Y68101D02*
Y80699D01*
X14104D02*
X20797D01*
X14104Y68101D02*
X20797D01*
X12208Y48158D02*
X38192D01*
Y30442D02*
Y48158D01*
X12208Y30442D02*
X38192D01*
X12208D02*
Y48158D01*
X57803Y9678D02*
Y13222D01*
X64496Y9678D02*
Y13222D01*
X57803D02*
X64496D01*
X57803Y9678D02*
X64496D01*
X11063Y59339D02*
X18937D01*
Y64261D01*
X11063D02*
X18937D01*
X11063Y59339D02*
Y64261D01*
X61346Y92753D02*
Y99446D01*
X48354Y92753D02*
X61346D01*
X48354D02*
Y99446D01*
X61346D01*
D12*
X34848Y63150D02*
Y66150D01*
X29652Y63248D02*
Y66150D01*
D36*
X13783Y55835D02*
X12995D01*
X13783D01*
M02*
