G04*
G04 #@! TF.GenerationSoftware,Altium Limited,Altium Designer,19.1.7 (138)*
G04*
G04 Layer_Physical_Order=1*
G04 Layer_Color=255*
%FSLAX25Y25*%
%MOIN*%
G70*
G01*
G75*
%ADD17R,0.03583X0.03661*%
%ADD18R,0.04921X0.04331*%
%ADD19R,0.04331X0.06811*%
%ADD20C,0.00800*%
%ADD21C,0.05906*%
%ADD22C,0.03000*%
G36*
X61927Y101651D02*
X61816Y101524D01*
X61718Y101397D01*
X61634Y101269D01*
X61563Y101142D01*
X61504Y101014D01*
X61458Y100887D01*
X61426Y100759D01*
X61406Y100632D01*
X61400Y100504D01*
X60600D01*
X60593Y100632D01*
X60574Y100759D01*
X60541Y100887D01*
X60496Y101014D01*
X60438Y101142D01*
X60366Y101269D01*
X60281Y101397D01*
X60184Y101524D01*
X60074Y101651D01*
X59950Y101779D01*
X62050D01*
X61927Y101651D01*
D02*
G37*
G36*
X61404Y100142D02*
X61416Y100005D01*
X61436Y99885D01*
X61464Y99782D01*
X61500Y99694D01*
X61544Y99621D01*
X61596Y99566D01*
X61656Y99525D01*
X61724Y99502D01*
X61800Y99493D01*
X60200D01*
X60276Y99502D01*
X60344Y99525D01*
X60404Y99566D01*
X60456Y99621D01*
X60500Y99694D01*
X60536Y99782D01*
X60564Y99885D01*
X60584Y100005D01*
X60596Y100142D01*
X60600Y100294D01*
X61400D01*
X61404Y100142D01*
D02*
G37*
G36*
X46764Y95300D02*
X46756Y95376D01*
X46731Y95444D01*
X46691Y95504D01*
X46634Y95556D01*
X46561Y95600D01*
X46471Y95636D01*
X46366Y95664D01*
X46244Y95684D01*
X46106Y95696D01*
X45952Y95700D01*
Y96500D01*
X46106Y96504D01*
X46244Y96516D01*
X46366Y96536D01*
X46471Y96564D01*
X46561Y96600D01*
X46634Y96644D01*
X46691Y96696D01*
X46731Y96756D01*
X46756Y96824D01*
X46764Y96900D01*
Y95300D01*
D02*
G37*
G36*
X38650Y95126D02*
X38777Y95016D01*
X38905Y94919D01*
X39032Y94834D01*
X39159Y94762D01*
X39287Y94704D01*
X39414Y94658D01*
X39542Y94626D01*
X39669Y94607D01*
X39797Y94600D01*
Y93800D01*
X39669Y93793D01*
X39542Y93774D01*
X39414Y93742D01*
X39287Y93696D01*
X39159Y93638D01*
X39032Y93566D01*
X38905Y93481D01*
X38777Y93384D01*
X38650Y93274D01*
X38522Y93150D01*
Y95250D01*
X38650Y95126D01*
D02*
G37*
G36*
X22071Y62524D02*
X22095Y62456D01*
X22136Y62396D01*
X22193Y62344D01*
X22266Y62300D01*
X22355Y62264D01*
X22460Y62236D01*
X22582Y62216D01*
X22720Y62204D01*
X22875Y62200D01*
Y61400D01*
X22720Y61396D01*
X22582Y61384D01*
X22460Y61364D01*
X22355Y61336D01*
X22266Y61300D01*
X22193Y61256D01*
X22136Y61204D01*
X22095Y61144D01*
X22071Y61076D01*
X22063Y61000D01*
Y62600D01*
X22071Y62524D01*
D02*
G37*
G36*
X7937Y61000D02*
X7929Y61076D01*
X7905Y61144D01*
X7864Y61204D01*
X7807Y61256D01*
X7734Y61300D01*
X7645Y61336D01*
X7540Y61364D01*
X7418Y61384D01*
X7280Y61396D01*
X7125Y61400D01*
Y62200D01*
X7280Y62204D01*
X7418Y62216D01*
X7540Y62236D01*
X7645Y62264D01*
X7734Y62300D01*
X7807Y62344D01*
X7864Y62396D01*
X7905Y62456D01*
X7929Y62524D01*
X7937Y62600D01*
Y61000D01*
D02*
G37*
G36*
X24213Y60750D02*
X24085Y60874D01*
X23958Y60984D01*
X23831Y61081D01*
X23703Y61166D01*
X23576Y61238D01*
X23448Y61296D01*
X23321Y61342D01*
X23193Y61374D01*
X23066Y61393D01*
X22938Y61400D01*
Y62200D01*
X23066Y62207D01*
X23193Y62226D01*
X23321Y62258D01*
X23448Y62304D01*
X23576Y62362D01*
X23703Y62434D01*
X23831Y62519D01*
X23958Y62616D01*
X24085Y62726D01*
X24213Y62850D01*
Y60750D01*
D02*
G37*
G36*
X4899Y62726D02*
X5026Y62616D01*
X5153Y62519D01*
X5281Y62434D01*
X5408Y62362D01*
X5536Y62304D01*
X5663Y62258D01*
X5791Y62226D01*
X5918Y62207D01*
X6046Y62200D01*
Y61400D01*
X5918Y61393D01*
X5791Y61374D01*
X5663Y61342D01*
X5536Y61296D01*
X5408Y61238D01*
X5281Y61166D01*
X5153Y61081D01*
X5026Y60984D01*
X4899Y60874D01*
X4771Y60750D01*
Y62850D01*
X4899Y62726D01*
D02*
G37*
G36*
X65918Y11924D02*
X65942Y11856D01*
X65983Y11796D01*
X66039Y11744D01*
X66113Y11700D01*
X66202Y11664D01*
X66307Y11636D01*
X66429Y11616D01*
X66567Y11604D01*
X66721Y11600D01*
Y10800D01*
X66567Y10796D01*
X66429Y10784D01*
X66307Y10764D01*
X66202Y10736D01*
X66113Y10700D01*
X66039Y10656D01*
X65983Y10604D01*
X65942Y10544D01*
X65918Y10476D01*
X65909Y10400D01*
Y12000D01*
X65918Y11924D01*
D02*
G37*
G36*
X56391Y10400D02*
X56382Y10476D01*
X56358Y10544D01*
X56317Y10604D01*
X56261Y10656D01*
X56187Y10700D01*
X56098Y10736D01*
X55993Y10764D01*
X55871Y10784D01*
X55733Y10796D01*
X55579Y10800D01*
Y11600D01*
X55733Y11604D01*
X55871Y11616D01*
X55993Y11636D01*
X56098Y11664D01*
X56187Y11700D01*
X56261Y11744D01*
X56317Y11796D01*
X56358Y11856D01*
X56382Y11924D01*
X56391Y12000D01*
Y10400D01*
D02*
G37*
G36*
X69415Y10150D02*
X69287Y10273D01*
X69160Y10384D01*
X69032Y10481D01*
X68905Y10566D01*
X68777Y10638D01*
X68650Y10696D01*
X68522Y10741D01*
X68395Y10774D01*
X68268Y10793D01*
X68140Y10800D01*
Y11600D01*
X68268Y11607D01*
X68395Y11626D01*
X68522Y11659D01*
X68650Y11704D01*
X68777Y11762D01*
X68905Y11834D01*
X69032Y11919D01*
X69160Y12016D01*
X69287Y12127D01*
X69415Y12250D01*
Y10150D01*
D02*
G37*
G36*
X52504Y12127D02*
X52631Y12016D01*
X52759Y11919D01*
X52886Y11834D01*
X53013Y11762D01*
X53141Y11704D01*
X53268Y11659D01*
X53396Y11626D01*
X53523Y11607D01*
X53651Y11600D01*
Y10800D01*
X53523Y10793D01*
X53396Y10774D01*
X53268Y10741D01*
X53141Y10696D01*
X53013Y10638D01*
X52886Y10566D01*
X52759Y10481D01*
X52631Y10384D01*
X52504Y10273D01*
X52376Y10150D01*
Y12250D01*
X52504Y12127D01*
D02*
G37*
G36*
X93162Y106620D02*
X93520Y106441D01*
X93878Y106172D01*
X94146Y105725D01*
X94325Y105099D01*
Y105009D01*
Y104831D01*
X94236Y104473D01*
X94146Y104115D01*
X93967Y103668D01*
X93610Y103310D01*
X93162Y102952D01*
X92536Y102773D01*
X92268D01*
X91642Y102863D01*
X91284Y103042D01*
X90926Y103310D01*
X90658Y103757D01*
X90479Y104294D01*
Y104383D01*
Y104652D01*
X90568Y104920D01*
X90658Y105367D01*
X90837Y105725D01*
X91105Y106172D01*
X91552Y106441D01*
X92178Y106709D01*
X92805D01*
X93162Y106620D01*
D02*
G37*
G36*
X33992Y81969D02*
X34260Y81880D01*
X34439Y81701D01*
X34618Y81433D01*
X34707Y81075D01*
Y80896D01*
X34528Y80628D01*
X34260Y80180D01*
X33813Y79823D01*
X33634D01*
X33276Y79912D01*
X33008Y80001D01*
X32829Y80180D01*
X32650Y80449D01*
X32561Y80806D01*
Y80985D01*
X32739Y81343D01*
X33008Y81701D01*
X33455Y82059D01*
X33634D01*
X33992Y81969D01*
D02*
G37*
G36*
X95694Y19182D02*
X96052Y19003D01*
X96410Y18734D01*
X96678Y18377D01*
X96857Y17840D01*
Y17751D01*
Y17571D01*
X96767Y17214D01*
X96678Y16856D01*
X96499Y16498D01*
X96231Y16140D01*
X95784Y15872D01*
X95247Y15604D01*
X95068D01*
X94621Y15693D01*
X94084Y15872D01*
X93905Y16140D01*
X93637Y16409D01*
X93547Y16588D01*
X93368Y16945D01*
X93279Y17571D01*
X93368Y18287D01*
X93458Y18466D01*
X93726Y18734D01*
X94084Y19092D01*
X94800Y19271D01*
X95068D01*
X95694Y19182D01*
D02*
G37*
G36*
X107013Y96495D02*
X106834D01*
X106476Y96585D01*
X106029Y96764D01*
X105939Y96943D01*
X105850Y97211D01*
X105939Y97300D01*
X106029Y97479D01*
X106387Y97658D01*
X107013Y97748D01*
Y96495D01*
D02*
G37*
G36*
X46712Y63370D02*
X47070Y63191D01*
X47428Y62922D01*
X47696Y62475D01*
X47875Y61849D01*
Y61759D01*
Y61580D01*
X47786Y61223D01*
X47696Y60865D01*
X47517Y60418D01*
X47160Y60060D01*
X46712Y59702D01*
X46086Y59523D01*
X45818D01*
X45192Y59613D01*
X44834Y59791D01*
X44476Y60060D01*
X44208Y60507D01*
X44029Y61044D01*
Y61133D01*
Y61402D01*
X44118Y61670D01*
X44208Y62117D01*
X44387Y62475D01*
X44655Y62922D01*
X45102Y63191D01*
X45728Y63459D01*
X46355D01*
X46712Y63370D01*
D02*
G37*
G36*
X15692Y39819D02*
X15960Y39730D01*
X16139Y39551D01*
X16318Y39283D01*
X16407Y38925D01*
Y38746D01*
X16229Y38478D01*
X15960Y38030D01*
X15513Y37673D01*
X15334D01*
X14976Y37762D01*
X14708Y37851D01*
X14529Y38030D01*
X14350Y38299D01*
X14261Y38656D01*
Y38835D01*
X14439Y39193D01*
X14708Y39551D01*
X15155Y39909D01*
X15334D01*
X15692Y39819D01*
D02*
G37*
G36*
X46007Y33856D02*
X46186Y33678D01*
X46365Y33409D01*
X46455Y32962D01*
Y32783D01*
X46365Y32515D01*
X46097Y32157D01*
X45649Y31888D01*
X45023D01*
X44844Y31978D01*
X44666Y32157D01*
X44487Y32515D01*
X44397Y32872D01*
Y33051D01*
X44576Y33320D01*
X44755Y33767D01*
X45202Y34035D01*
X45828D01*
X46007Y33856D01*
D02*
G37*
G36*
X85190Y88311D02*
X86116Y88219D01*
X87042Y88033D01*
X87968Y87848D01*
X88894Y87571D01*
X89079Y87478D01*
X89264Y87385D01*
X89542Y87200D01*
X89912Y86922D01*
X90468Y86552D01*
X91208Y85997D01*
X92042Y85348D01*
X92134D01*
X92227Y85163D01*
X92782Y84885D01*
X93523Y84515D01*
X93893Y84422D01*
X94264Y84330D01*
X95838D01*
X96671Y84422D01*
X97782D01*
X98986Y84515D01*
X100467Y84608D01*
X100745D01*
X101116Y84700D01*
X102134D01*
X102690Y84793D01*
X104171Y84885D01*
X105745Y84978D01*
X107412Y85071D01*
X110837D01*
X111208Y84978D01*
X112134D01*
X113245Y84793D01*
X114448Y84608D01*
X115559Y84237D01*
X116578Y83867D01*
X117411Y83311D01*
X117504Y83219D01*
X117782Y82849D01*
X118060Y82385D01*
X118430Y81737D01*
X118522Y81552D01*
X118708Y81182D01*
X118985Y80441D01*
X119263Y79423D01*
Y79330D01*
X119356Y79145D01*
X119448Y78589D01*
X119633Y77941D01*
X119819Y77293D01*
Y77201D01*
X119911Y76737D01*
X120004Y76367D01*
X120097Y75997D01*
X120189Y75441D01*
X120282Y74793D01*
Y74700D01*
X120374Y74515D01*
X120467Y73867D01*
X120559Y73219D01*
Y73034D01*
Y72941D01*
Y72849D01*
Y72756D01*
X120652Y72478D01*
Y72108D01*
X120745Y71182D01*
X120930Y69886D01*
X121022Y68404D01*
X121115Y66553D01*
X121207Y64516D01*
X121300Y62293D01*
X121207Y59886D01*
X121115Y57294D01*
X120837Y54701D01*
X120467Y52016D01*
X120004Y49331D01*
X119356Y46553D01*
X118522Y43868D01*
X117504Y41276D01*
X117411Y41090D01*
X117226Y40627D01*
X116856Y39887D01*
X116393Y38961D01*
X115930Y37850D01*
X115282Y36646D01*
X113893Y34146D01*
X113800Y34054D01*
X113708Y33868D01*
X113430Y33591D01*
X113152Y33035D01*
Y32943D01*
X112967Y32757D01*
X112597Y32202D01*
X112134Y31554D01*
X111856Y30906D01*
X110560D01*
X110004Y30813D01*
X109263D01*
X108430Y30720D01*
X107504Y30628D01*
X106393Y30443D01*
X105097Y30350D01*
X103708Y30165D01*
X102134Y29887D01*
X100375Y29609D01*
X98523Y29331D01*
X96486Y28961D01*
X96208D01*
X95930Y28868D01*
X95468Y28776D01*
X95005Y28683D01*
X94356D01*
X92968Y28498D01*
X91394Y28313D01*
X89820Y28128D01*
X88245Y28035D01*
X86764Y27943D01*
X86394D01*
X85931Y28035D01*
X85375D01*
X84727Y28128D01*
X83986Y28220D01*
X82320Y28683D01*
X80468Y29331D01*
X79635Y29794D01*
X78801Y30350D01*
X78061Y30998D01*
X77320Y31739D01*
X76764Y32572D01*
X76301Y33498D01*
Y33591D01*
X76209Y33868D01*
X76116Y34424D01*
X75931Y35165D01*
X75838Y36090D01*
X75653Y37294D01*
X75561Y38776D01*
Y40535D01*
X75468D01*
X75098Y40627D01*
X74635Y40720D01*
X73987Y40813D01*
X73246Y41090D01*
X72320Y41368D01*
X71302Y41739D01*
X70283Y42294D01*
X69172Y42942D01*
X68061Y43683D01*
X66950Y44609D01*
X65839Y45720D01*
X64728Y46924D01*
X63709Y48405D01*
X62876Y49979D01*
X62042Y51831D01*
Y51923D01*
X61950Y52201D01*
X61857Y52571D01*
X61672Y53127D01*
X61487Y53775D01*
X61302Y54609D01*
X61117Y55442D01*
X60931Y56460D01*
X60746Y57571D01*
X60654Y58775D01*
X60469Y61368D01*
X60561Y64145D01*
X60746Y65627D01*
X60931Y67108D01*
Y67201D01*
X61024Y67386D01*
X61117Y67756D01*
X61209Y68127D01*
X61394Y68682D01*
X61580Y69330D01*
X62135Y70812D01*
X62968Y72386D01*
X63987Y74052D01*
X65283Y75719D01*
X66950Y77201D01*
X67042Y77293D01*
X67413Y77571D01*
X67968Y77849D01*
X68616Y78219D01*
X69450Y78682D01*
X70468Y79052D01*
X71487Y79330D01*
X72505Y79515D01*
Y79700D01*
Y80071D01*
Y80626D01*
X72598Y81274D01*
Y82015D01*
X72690Y82663D01*
X72783Y83311D01*
X72968Y83682D01*
Y83774D01*
X73061Y83867D01*
X73431Y84422D01*
X74079Y85071D01*
X74542Y85534D01*
X75098Y85904D01*
X75746Y86367D01*
X76487Y86830D01*
X77320Y87200D01*
X78246Y87571D01*
X79264Y87848D01*
X80468Y88126D01*
X81764Y88311D01*
X83246Y88404D01*
X84449D01*
X85190Y88311D01*
D02*
G37*
D17*
X58158Y11450D02*
D03*
X64142D02*
D03*
D18*
X10374Y61800D02*
D03*
X19626D02*
D03*
D19*
X60795Y96100D02*
D03*
X48905D02*
D03*
D20*
X57308Y11200D02*
X57858Y11750D01*
X64492Y11200D02*
X70486D01*
X51305D02*
X57308D01*
X37451Y94200D02*
X41800D01*
X43700Y96100D01*
X48905D01*
X61000Y96305D02*
Y102850D01*
X19626Y61800D02*
X25284D01*
X3700D02*
X10374D01*
X64192Y11500D02*
X64492Y11200D01*
X64142Y11450D02*
X64192Y11500D01*
X60795Y96100D02*
X61000Y96305D01*
X19905Y63021D02*
X20376Y62550D01*
X19626Y61800D02*
X20376Y62550D01*
X57858Y11750D02*
X58158Y11450D01*
D21*
X61200Y118250D02*
D03*
D22*
X70486Y11200D02*
D03*
X51305D02*
D03*
X37451Y94200D02*
D03*
X61000Y102850D02*
D03*
X25284Y61800D02*
D03*
X3700D02*
D03*
M02*
