G04*
G04 #@! TF.GenerationSoftware,Altium Limited,Altium Designer,19.1.7 (138)*
G04*
G04 Layer_Physical_Order=2*
G04 Layer_Color=16711680*
%FSLAX25Y25*%
%MOIN*%
G70*
G01*
G75*
%ADD20C,0.00800*%
%ADD21C,0.05906*%
%ADD22C,0.03000*%
%ADD23R,0.11811X0.09843*%
%ADD24C,0.55118*%
%ADD25R,0.05906X0.05118*%
%ADD26R,0.03543X0.03819*%
%ADD27R,0.06811X0.03819*%
%ADD28R,0.01614X0.06142*%
G36*
X68808Y124688D02*
X73696Y123914D01*
X78508Y122759D01*
X83214Y121230D01*
X87786Y119336D01*
X92195Y117089D01*
X96415Y114504D01*
X100418Y111595D01*
X104182Y108381D01*
X107681Y104882D01*
X110895Y101119D01*
X113804Y97115D01*
X116389Y92896D01*
X118636Y88486D01*
X120530Y83914D01*
X122059Y79208D01*
X123214Y74396D01*
X123988Y69508D01*
X124377Y64574D01*
Y59626D01*
X123988Y54692D01*
X123214Y49804D01*
X122059Y44992D01*
X120530Y40286D01*
X118636Y35714D01*
X116389Y31304D01*
X113804Y27085D01*
X110895Y23081D01*
X107681Y19318D01*
X104182Y15819D01*
X100419Y12605D01*
X96415Y9696D01*
X92195Y7111D01*
X87786Y4864D01*
X83214Y2970D01*
X78508Y1441D01*
X73696Y286D01*
X68808Y-489D01*
X63874Y-877D01*
X58926D01*
X53992Y-489D01*
X49104Y286D01*
X44292Y1441D01*
X39586Y2970D01*
X35014Y4864D01*
X30604Y7111D01*
X26385Y9696D01*
X22381Y12605D01*
X18618Y15819D01*
X15119Y19318D01*
X11905Y23081D01*
X8996Y27085D01*
X6411Y31304D01*
X4164Y35714D01*
X2270Y40286D01*
X741Y44992D01*
X-414Y49804D01*
X-1189Y54692D01*
X-1577Y59626D01*
Y64574D01*
X-1189Y69508D01*
X-414Y74396D01*
X741Y79208D01*
X2270Y83914D01*
X4164Y88486D01*
X6411Y92896D01*
X8996Y97115D01*
X11905Y101119D01*
X15119Y104882D01*
X18618Y108381D01*
X22381Y111595D01*
X26385Y114504D01*
X30604Y117089D01*
X35014Y119336D01*
X39586Y121230D01*
X44292Y122759D01*
X49104Y123914D01*
X53992Y124688D01*
X58926Y125077D01*
X63874D01*
X68808Y124688D01*
D02*
G37*
%LPC*%
G36*
X61200Y122022D02*
X60224Y121894D01*
X59314Y121517D01*
X58533Y120917D01*
X57933Y120136D01*
X57556Y119226D01*
X57428Y118250D01*
X57556Y117274D01*
X57933Y116364D01*
X58533Y115583D01*
X59314Y114983D01*
X60224Y114606D01*
X61200Y114478D01*
X62176Y114606D01*
X63086Y114983D01*
X63867Y115583D01*
X64467Y116364D01*
X64844Y117274D01*
X64972Y118250D01*
X64844Y119226D01*
X64467Y120136D01*
X63867Y120917D01*
X63086Y121517D01*
X62176Y121894D01*
X61200Y122022D01*
D02*
G37*
G36*
X37451Y96532D02*
X36558Y96355D01*
X35802Y95849D01*
X35724Y95732D01*
X35710Y95718D01*
X35618Y95639D01*
X35531Y95573D01*
X35451Y95520D01*
X35378Y95479D01*
X35312Y95448D01*
X35253Y95427D01*
X35200Y95414D01*
X35180Y95411D01*
X25543D01*
X25079Y95319D01*
X24687Y95056D01*
X24687Y95056D01*
X16594Y86963D01*
X16331Y86571D01*
X16239Y86107D01*
X16239Y86107D01*
Y82924D01*
X13257D01*
Y77530D01*
X21643D01*
Y82924D01*
X18661D01*
Y85606D01*
X26044Y92989D01*
X35180D01*
X35200Y92986D01*
X35253Y92973D01*
X35312Y92952D01*
X35378Y92921D01*
X35451Y92880D01*
X35531Y92827D01*
X35618Y92761D01*
X35710Y92681D01*
X35724Y92668D01*
X35802Y92551D01*
X36558Y92045D01*
X37451Y91868D01*
X38344Y92045D01*
X39100Y92551D01*
X39606Y93308D01*
X39783Y94200D01*
X39606Y95092D01*
X39100Y95849D01*
X38344Y96355D01*
X37451Y96532D01*
D02*
G37*
G36*
X35990Y71737D02*
X28510D01*
Y69601D01*
X26173D01*
X26173Y69601D01*
X25709Y69509D01*
X25316Y69246D01*
X24428Y68358D01*
X24166Y67965D01*
X24073Y67502D01*
X24073Y67502D01*
Y64071D01*
X24070Y64051D01*
X24057Y63998D01*
X24036Y63939D01*
X24005Y63873D01*
X23965Y63800D01*
X23911Y63720D01*
X23845Y63634D01*
X23766Y63541D01*
X23752Y63527D01*
X23635Y63449D01*
X23129Y62692D01*
X22952Y61800D01*
X23129Y60908D01*
X23635Y60151D01*
X24392Y59645D01*
X25284Y59468D01*
X26177Y59645D01*
X26933Y60151D01*
X27439Y60908D01*
X27616Y61800D01*
X27439Y62692D01*
X26933Y63449D01*
X26816Y63527D01*
X26803Y63541D01*
X26723Y63634D01*
X26657Y63720D01*
X26604Y63800D01*
X26563Y63873D01*
X26532Y63939D01*
X26511Y63998D01*
X26498Y64051D01*
X26495Y64071D01*
Y67000D01*
X26674Y67180D01*
X28510D01*
Y65044D01*
X35990D01*
Y71737D01*
D02*
G37*
G36*
X81650Y88048D02*
Y60500D01*
X109198D01*
X109074Y62703D01*
X108537Y65865D01*
X107649Y68947D01*
X106421Y71911D01*
X104870Y74718D01*
X103014Y77334D01*
X100876Y79726D01*
X98484Y81863D01*
X95868Y83720D01*
X93061Y85271D01*
X90097Y86499D01*
X87015Y87387D01*
X83853Y87924D01*
X81650Y88048D01*
D02*
G37*
G36*
X79650D02*
X77447Y87924D01*
X74285Y87387D01*
X71203Y86499D01*
X68239Y85271D01*
X65432Y83720D01*
X62816Y81863D01*
X60424Y79726D01*
X58286Y77334D01*
X56430Y74718D01*
X54879Y71911D01*
X53651Y68947D01*
X52763Y65865D01*
X52226Y62703D01*
X52102Y60500D01*
X79650D01*
Y88048D01*
D02*
G37*
G36*
X12684Y54709D02*
X11877D01*
Y51639D01*
X12684D01*
Y54709D01*
D02*
G37*
G36*
Y49639D02*
X11877D01*
Y46568D01*
X12684D01*
Y49639D01*
D02*
G37*
G36*
X87343Y111378D02*
X73957D01*
Y101702D01*
X73791Y101507D01*
X48944Y76660D01*
X48682Y76267D01*
X48589Y75804D01*
X48589Y75803D01*
Y52451D01*
X40699Y44561D01*
X25228D01*
X25204Y44611D01*
X25176Y44688D01*
X25154Y44769D01*
X25138Y44854D01*
X25131Y44912D01*
Y46780D01*
X38310D01*
Y54497D01*
X31712D01*
X31521Y54959D01*
X32706Y56144D01*
X32706Y56144D01*
X32969Y56537D01*
X33061Y57000D01*
X33061Y57000D01*
Y57563D01*
X35990D01*
Y64256D01*
X28510D01*
Y57563D01*
X29994D01*
X30201Y57063D01*
X28590Y55452D01*
X28327Y55059D01*
X28235Y54596D01*
X27745Y54497D01*
X26864D01*
X26846Y54587D01*
X26584Y54980D01*
X26584Y54980D01*
X18661Y62903D01*
Y65876D01*
X21643D01*
Y71270D01*
X13257D01*
Y65876D01*
X16239D01*
Y62401D01*
X16239Y62401D01*
X16331Y61938D01*
X16594Y61545D01*
X23180Y54959D01*
X22989Y54497D01*
X15491D01*
Y54709D01*
X14684D01*
Y54497D01*
X14649D01*
Y50639D01*
Y46780D01*
X14684D01*
Y46568D01*
X15491D01*
Y46780D01*
X20142D01*
X20422Y46368D01*
X20514Y45904D01*
X20776Y45512D01*
X23064Y43224D01*
X23064Y43224D01*
X23794Y42494D01*
X24187Y42232D01*
X24650Y42139D01*
X41200D01*
X41200Y42139D01*
X41663Y42232D01*
X42056Y42494D01*
X50656Y51094D01*
X50656Y51094D01*
X50919Y51487D01*
X51011Y51950D01*
X51011Y51950D01*
Y75302D01*
X75473Y99765D01*
X75601Y99884D01*
X75697Y99961D01*
X87343D01*
Y111378D01*
D02*
G37*
G36*
X43950Y36311D02*
X43950Y36311D01*
X28326D01*
X28326Y36311D01*
X27863Y36219D01*
X27470Y35956D01*
X23816Y32303D01*
X23554Y31910D01*
X23536Y31820D01*
X12090D01*
Y24103D01*
X24672D01*
Y23891D01*
X25480D01*
Y24103D01*
X25515D01*
Y27961D01*
X27444D01*
Y24103D01*
X27479D01*
Y23891D01*
X28287D01*
Y24103D01*
X31638D01*
X31829Y23641D01*
X28194Y20006D01*
X27931Y19613D01*
X27839Y19150D01*
X27839Y19150D01*
Y17497D01*
X26349D01*
Y12103D01*
X31467D01*
Y17497D01*
X30261D01*
Y18649D01*
X34606Y22994D01*
X34606Y22994D01*
X34868Y23386D01*
X34960Y23850D01*
X35346Y24103D01*
X38310D01*
Y31820D01*
X28287D01*
Y32032D01*
X27624D01*
X27432Y32494D01*
X28827Y33889D01*
X43448D01*
X63863Y13475D01*
X63863Y13475D01*
X64256Y13212D01*
X64719Y13120D01*
X64719Y13120D01*
X73957D01*
Y8622D01*
X87343D01*
Y20039D01*
X73957D01*
Y15541D01*
X65221D01*
X44806Y35956D01*
X44413Y36219D01*
X43950Y36311D01*
D02*
G37*
G36*
X109198Y58500D02*
X81650D01*
Y30952D01*
X83853Y31076D01*
X87015Y31613D01*
X90097Y32501D01*
X93061Y33729D01*
X95868Y35280D01*
X98484Y37137D01*
X100876Y39274D01*
X103014Y41666D01*
X104870Y44282D01*
X106421Y47089D01*
X107649Y50053D01*
X108537Y53135D01*
X109074Y56297D01*
X109198Y58500D01*
D02*
G37*
G36*
X79650D02*
X52102D01*
X52226Y56297D01*
X52763Y53135D01*
X53651Y50053D01*
X54879Y47089D01*
X56430Y44282D01*
X58286Y41666D01*
X60424Y39274D01*
X62816Y37137D01*
X65432Y35280D01*
X68239Y33729D01*
X71203Y32501D01*
X74285Y31613D01*
X77447Y31076D01*
X79650Y30952D01*
Y58500D01*
D02*
G37*
G36*
X37451Y17497D02*
X32333D01*
Y12103D01*
X35850D01*
X36035Y11945D01*
X37636Y10344D01*
X38029Y10081D01*
X38492Y9989D01*
X38492Y9989D01*
X49034D01*
X49054Y9986D01*
X49107Y9973D01*
X49166Y9952D01*
X49232Y9921D01*
X49305Y9881D01*
X49385Y9827D01*
X49471Y9761D01*
X49564Y9681D01*
X49578Y9668D01*
X49656Y9551D01*
X50412Y9045D01*
X51305Y8868D01*
X52197Y9045D01*
X52954Y9551D01*
X53460Y10307D01*
X53637Y11200D01*
X53460Y12093D01*
X52954Y12849D01*
X52197Y13355D01*
X51305Y13532D01*
X50412Y13355D01*
X49656Y12849D01*
X49578Y12732D01*
X49564Y12718D01*
X49471Y12639D01*
X49385Y12573D01*
X49305Y12520D01*
X49232Y12479D01*
X49166Y12448D01*
X49107Y12427D01*
X49054Y12414D01*
X49034Y12411D01*
X38994D01*
X37653Y13751D01*
X37540Y13873D01*
X37464Y13968D01*
X37451Y13986D01*
Y17497D01*
D02*
G37*
%LPD*%
G36*
X36380Y93150D02*
X36252Y93274D01*
X36125Y93384D01*
X35997Y93481D01*
X35870Y93566D01*
X35743Y93638D01*
X35615Y93696D01*
X35488Y93742D01*
X35360Y93774D01*
X35233Y93793D01*
X35105Y93800D01*
Y94600D01*
X35233Y94607D01*
X35360Y94626D01*
X35488Y94658D01*
X35615Y94704D01*
X35743Y94762D01*
X35870Y94834D01*
X35997Y94919D01*
X36125Y95016D01*
X36252Y95126D01*
X36380Y95250D01*
Y93150D01*
D02*
G37*
G36*
X17854Y82770D02*
X17866Y82632D01*
X17886Y82510D01*
X17914Y82405D01*
X17950Y82315D01*
X17994Y82242D01*
X18046Y82185D01*
X18106Y82145D01*
X18174Y82120D01*
X18250Y82112D01*
X16650D01*
X16726Y82120D01*
X16794Y82145D01*
X16854Y82185D01*
X16906Y82242D01*
X16950Y82315D01*
X16986Y82405D01*
X17014Y82510D01*
X17034Y82632D01*
X17046Y82770D01*
X17050Y82924D01*
X17850D01*
X17854Y82770D01*
D02*
G37*
G36*
X29321Y67590D02*
X29313Y67666D01*
X29289Y67734D01*
X29248Y67794D01*
X29191Y67846D01*
X29118Y67890D01*
X29029Y67926D01*
X28923Y67954D01*
X28802Y67974D01*
X28664Y67986D01*
X28509Y67990D01*
Y68790D01*
X28664Y68794D01*
X28802Y68806D01*
X28923Y68826D01*
X29029Y68854D01*
X29118Y68890D01*
X29191Y68934D01*
X29248Y68986D01*
X29289Y69046D01*
X29313Y69114D01*
X29321Y69190D01*
Y67590D01*
D02*
G37*
G36*
X25691Y64018D02*
X25710Y63891D01*
X25743Y63763D01*
X25788Y63636D01*
X25847Y63508D01*
X25918Y63381D01*
X26003Y63253D01*
X26100Y63126D01*
X26211Y62999D01*
X26334Y62871D01*
X24234D01*
X24358Y62999D01*
X24468Y63126D01*
X24566Y63253D01*
X24650Y63381D01*
X24722Y63508D01*
X24780Y63636D01*
X24826Y63763D01*
X24858Y63891D01*
X24878Y64018D01*
X24884Y64146D01*
X25684D01*
X25691Y64018D01*
D02*
G37*
G36*
X75888Y100772D02*
X75827Y100816D01*
X75754Y100838D01*
X75670Y100836D01*
X75574Y100812D01*
X75467Y100766D01*
X75348Y100697D01*
X75217Y100605D01*
X75075Y100491D01*
X74756Y100194D01*
X74191Y100760D01*
X74350Y100925D01*
X74602Y101221D01*
X74693Y101351D01*
X74762Y101470D01*
X74809Y101577D01*
X74833Y101673D01*
X74834Y101758D01*
X74813Y101830D01*
X74769Y101891D01*
X75888Y100772D01*
D02*
G37*
G36*
X18174Y66680D02*
X18106Y66655D01*
X18046Y66615D01*
X17994Y66558D01*
X17950Y66485D01*
X17914Y66395D01*
X17886Y66290D01*
X17866Y66168D01*
X17854Y66030D01*
X17850Y65876D01*
X17050D01*
X17046Y66030D01*
X17034Y66168D01*
X17014Y66290D01*
X16986Y66395D01*
X16950Y66485D01*
X16906Y66558D01*
X16854Y66615D01*
X16794Y66655D01*
X16726Y66680D01*
X16650Y66688D01*
X18250D01*
X18174Y66680D01*
D02*
G37*
G36*
X32574Y58367D02*
X32506Y58342D01*
X32446Y58302D01*
X32394Y58245D01*
X32350Y58172D01*
X32314Y58082D01*
X32286Y57977D01*
X32266Y57855D01*
X32254Y57717D01*
X32250Y57563D01*
X31450D01*
X31446Y57717D01*
X31434Y57855D01*
X31414Y57977D01*
X31386Y58082D01*
X31350Y58172D01*
X31306Y58245D01*
X31254Y58302D01*
X31194Y58342D01*
X31126Y58367D01*
X31050Y58375D01*
X32650D01*
X32574Y58367D01*
D02*
G37*
G36*
X29834Y53697D02*
X28646Y53685D01*
X28722Y53694D01*
X28790Y53719D01*
X28850Y53760D01*
X28902Y53817D01*
X28946Y53891D01*
X28982Y53980D01*
X29010Y54085D01*
X29030Y54206D01*
X29042Y54344D01*
X29046Y54497D01*
X29846D01*
X29834Y53697D01*
D02*
G37*
G36*
X24641Y47572D02*
X24573Y47548D01*
X24514Y47508D01*
X24463Y47452D01*
X24419Y47380D01*
X24384Y47292D01*
X24356Y47188D01*
X24336Y47068D01*
X24324Y46932D01*
X24320Y46780D01*
X23520D01*
X23516Y46932D01*
X23505Y47068D01*
X23485Y47188D01*
X23457Y47292D01*
X23422Y47380D01*
X23378Y47452D01*
X23327Y47508D01*
X23268Y47548D01*
X23201Y47572D01*
X23125Y47580D01*
X24715D01*
X24641Y47572D01*
D02*
G37*
G36*
X22156Y47580D02*
X22133Y47572D01*
X22112Y47548D01*
X22093Y47508D01*
X22077Y47452D01*
X22063Y47380D01*
X22052Y47292D01*
X22037Y47068D01*
X22032Y46780D01*
X21232D01*
X21228Y46933D01*
X21216Y47071D01*
X21196Y47192D01*
X21168Y47298D01*
X21132Y47387D01*
X21088Y47460D01*
X21036Y47517D01*
X20976Y47558D01*
X20908Y47583D01*
X20832Y47592D01*
X22156Y47580D01*
D02*
G37*
G36*
X24320Y45045D02*
X24326Y44888D01*
X24343Y44735D01*
X24371Y44586D01*
X24411Y44443D01*
X24462Y44304D01*
X24524Y44170D01*
X24598Y44040D01*
X24682Y43915D01*
X24779Y43795D01*
X24886Y43679D01*
X23638Y43797D01*
X23072Y44362D01*
X22955Y45611D01*
X23062Y45511D01*
X23158Y45439D01*
X23243Y45394D01*
X23317Y45377D01*
X23379Y45387D01*
X23430Y45424D01*
X23470Y45488D01*
X23498Y45580D01*
X23515Y45699D01*
X23520Y45845D01*
X24320Y45045D01*
D02*
G37*
G36*
X34474Y24906D02*
X34406Y24881D01*
X34346Y24840D01*
X34294Y24783D01*
X34250Y24710D01*
X34214Y24620D01*
X34186Y24515D01*
X34166Y24394D01*
X34154Y24256D01*
X34150Y24103D01*
X33350D01*
X33362Y24903D01*
X34550Y24915D01*
X34474Y24906D01*
D02*
G37*
G36*
X29454Y17343D02*
X29466Y17205D01*
X29486Y17083D01*
X29514Y16978D01*
X29550Y16888D01*
X29594Y16815D01*
X29646Y16759D01*
X29706Y16718D01*
X29774Y16694D01*
X29850Y16686D01*
X28250D01*
X28326Y16694D01*
X28394Y16718D01*
X28454Y16759D01*
X28506Y16815D01*
X28550Y16888D01*
X28586Y16978D01*
X28614Y17083D01*
X28634Y17205D01*
X28646Y17343D01*
X28650Y17497D01*
X29450D01*
X29454Y17343D01*
D02*
G37*
G36*
X74769Y13531D02*
X74760Y13607D01*
X74736Y13675D01*
X74695Y13735D01*
X74639Y13787D01*
X74566Y13831D01*
X74476Y13867D01*
X74371Y13895D01*
X74249Y13915D01*
X74111Y13927D01*
X73957Y13931D01*
Y14731D01*
X74111Y14735D01*
X74249Y14747D01*
X74371Y14767D01*
X74476Y14795D01*
X74566Y14831D01*
X74639Y14875D01*
X74695Y14927D01*
X74736Y14987D01*
X74760Y15055D01*
X74769Y15131D01*
Y13531D01*
D02*
G37*
G36*
X36602Y14104D02*
X36585Y14027D01*
X36590Y13939D01*
X36616Y13841D01*
X36663Y13733D01*
X36731Y13615D01*
X36821Y13487D01*
X36932Y13348D01*
X37218Y13040D01*
X36790Y12337D01*
X36618Y12503D01*
X36314Y12762D01*
X36182Y12856D01*
X36062Y12926D01*
X35956Y12971D01*
X35862Y12993D01*
X35781Y12991D01*
X35713Y12965D01*
X35658Y12914D01*
X36640Y14172D01*
X36602Y14104D01*
D02*
G37*
G36*
X50234Y10150D02*
X50106Y10273D01*
X49979Y10384D01*
X49851Y10481D01*
X49724Y10566D01*
X49597Y10638D01*
X49469Y10696D01*
X49342Y10741D01*
X49214Y10774D01*
X49087Y10793D01*
X48959Y10800D01*
Y11600D01*
X49087Y11607D01*
X49214Y11626D01*
X49342Y11659D01*
X49469Y11704D01*
X49597Y11762D01*
X49724Y11834D01*
X49851Y11919D01*
X49979Y12016D01*
X50106Y12127D01*
X50234Y12250D01*
Y10150D01*
D02*
G37*
D20*
X34892Y14800D02*
X38492Y11200D01*
X51305D01*
X29050Y14942D02*
Y19150D01*
X33750Y23850D01*
Y27554D01*
X25543Y94200D02*
X37451D01*
X17450Y86107D02*
X25543Y94200D01*
X17450Y80227D02*
Y86107D01*
X26173Y68390D02*
X32250D01*
X25284Y67502D02*
X26173Y68390D01*
X25284Y61800D02*
Y67502D01*
X64719Y14331D02*
X80650D01*
X43950Y35100D02*
X64719Y14331D01*
X28326Y35100D02*
X43950D01*
X23921Y44080D02*
X24650Y43350D01*
X21632Y46368D02*
X23921Y44080D01*
X21632Y46368D02*
Y50368D01*
X21361Y50639D02*
X21632Y50368D01*
X23921Y44080D02*
Y50639D01*
X24650Y43350D02*
X41200D01*
X49800Y51950D01*
Y75804D01*
X79666Y105669D01*
X80650D01*
X24672Y31446D02*
X28326Y35100D01*
X24672Y30977D02*
Y31446D01*
X23921Y30225D02*
X24672Y30977D01*
X23921Y27961D02*
Y30225D01*
X29446Y51046D02*
Y54596D01*
X29039Y50639D02*
X29446Y51046D01*
X31850Y57000D02*
Y60510D01*
X29446Y54596D02*
X31850Y57000D01*
Y60510D02*
X32250Y60910D01*
X17450Y62401D02*
Y68573D01*
Y62401D02*
X25728Y54124D01*
Y53654D02*
Y54124D01*
Y53654D02*
X26480Y52902D01*
Y50639D02*
Y52902D01*
X28908Y14800D02*
X29050Y14942D01*
X33750Y27554D02*
X34157Y27961D01*
X34169Y27950D01*
D21*
X61200Y118250D02*
D03*
D22*
X70486Y11200D02*
D03*
X51305D02*
D03*
X37451Y94200D02*
D03*
X61000Y102850D02*
D03*
X25284Y61800D02*
D03*
X3700D02*
D03*
D23*
X80650Y14331D02*
D03*
Y105669D02*
D03*
D24*
Y59500D02*
D03*
D25*
X32250Y60910D02*
D03*
Y68390D02*
D03*
D26*
X34892Y14800D02*
D03*
X28908D02*
D03*
D27*
X17450Y68573D02*
D03*
Y80227D02*
D03*
D28*
X13684Y27961D02*
D03*
X16243D02*
D03*
X18802D02*
D03*
X21361D02*
D03*
X23921D02*
D03*
X26480D02*
D03*
X29039D02*
D03*
X31598D02*
D03*
X34157D02*
D03*
X36716D02*
D03*
Y50639D02*
D03*
X34157D02*
D03*
X31598D02*
D03*
X29039D02*
D03*
X26480D02*
D03*
X23921D02*
D03*
X21361D02*
D03*
X18802D02*
D03*
X16243D02*
D03*
X13684D02*
D03*
M02*
