G04*
G04 #@! TF.GenerationSoftware,Altium Limited,Altium Designer,19.1.7 (138)*
G04*
G04 Layer_Color=65535*
%FSLAX25Y25*%
%MOIN*%
G70*
G01*
G75*
%ADD10C,0.00500*%
%ADD11C,0.00200*%
%ADD12C,0.00400*%
G36*
X60650Y10450D02*
Y12450D01*
X61650Y11450D01*
X60650Y10450D01*
D02*
G37*
G36*
X15500Y62800D02*
Y60800D01*
X14500Y61800D01*
X15500Y62800D01*
D02*
G37*
G36*
X54350Y95100D02*
Y97100D01*
X55350Y96100D01*
X54350Y95100D01*
D02*
G37*
G36*
X93162Y106620D02*
X93520Y106441D01*
X93878Y106172D01*
X94146Y105725D01*
X94325Y105099D01*
Y105009D01*
Y104831D01*
X94236Y104473D01*
X94146Y104115D01*
X93967Y103668D01*
X93610Y103310D01*
X93162Y102952D01*
X92536Y102773D01*
X92268D01*
X91642Y102863D01*
X91284Y103042D01*
X90926Y103310D01*
X90658Y103757D01*
X90479Y104294D01*
Y104383D01*
Y104652D01*
X90568Y104920D01*
X90658Y105367D01*
X90837Y105725D01*
X91105Y106172D01*
X91552Y106441D01*
X92178Y106709D01*
X92805D01*
X93162Y106620D01*
D02*
G37*
G36*
X33992Y81969D02*
X34260Y81880D01*
X34439Y81701D01*
X34618Y81433D01*
X34707Y81075D01*
Y80896D01*
X34528Y80628D01*
X34260Y80180D01*
X33813Y79823D01*
X33634D01*
X33276Y79912D01*
X33008Y80001D01*
X32829Y80180D01*
X32650Y80449D01*
X32561Y80806D01*
Y80985D01*
X32739Y81343D01*
X33008Y81701D01*
X33455Y82059D01*
X33634D01*
X33992Y81969D01*
D02*
G37*
G36*
X107013Y96495D02*
X106834D01*
X106476Y96585D01*
X106029Y96764D01*
X105939Y96943D01*
X105850Y97211D01*
X105939Y97300D01*
X106029Y97479D01*
X106387Y97658D01*
X107013Y97748D01*
Y96495D01*
D02*
G37*
G36*
X95694Y19182D02*
X96052Y19003D01*
X96410Y18734D01*
X96678Y18377D01*
X96857Y17840D01*
Y17751D01*
Y17571D01*
X96767Y17214D01*
X96678Y16856D01*
X96499Y16498D01*
X96231Y16140D01*
X95784Y15872D01*
X95247Y15604D01*
X95068D01*
X94621Y15693D01*
X94084Y15872D01*
X93905Y16140D01*
X93637Y16409D01*
X93547Y16588D01*
X93368Y16945D01*
X93279Y17571D01*
X93368Y18287D01*
X93458Y18466D01*
X93726Y18734D01*
X94084Y19092D01*
X94800Y19271D01*
X95068D01*
X95694Y19182D01*
D02*
G37*
G36*
X46007Y33856D02*
X46186Y33678D01*
X46365Y33409D01*
X46455Y32962D01*
Y32783D01*
X46365Y32515D01*
X46097Y32157D01*
X45649Y31888D01*
X45023D01*
X44844Y31978D01*
X44666Y32157D01*
X44487Y32515D01*
X44397Y32872D01*
Y33051D01*
X44576Y33320D01*
X44755Y33767D01*
X45202Y34035D01*
X45828D01*
X46007Y33856D01*
D02*
G37*
G36*
X15692Y39819D02*
X15960Y39730D01*
X16139Y39551D01*
X16318Y39283D01*
X16407Y38925D01*
Y38746D01*
X16229Y38478D01*
X15960Y38030D01*
X15513Y37673D01*
X15334D01*
X14976Y37762D01*
X14708Y37851D01*
X14529Y38030D01*
X14350Y38299D01*
X14261Y38656D01*
Y38835D01*
X14439Y39193D01*
X14708Y39551D01*
X15155Y39909D01*
X15334D01*
X15692Y39819D01*
D02*
G37*
G36*
X46712Y63370D02*
X47070Y63191D01*
X47428Y62922D01*
X47696Y62475D01*
X47875Y61849D01*
Y61759D01*
Y61580D01*
X47786Y61223D01*
X47696Y60865D01*
X47517Y60418D01*
X47160Y60060D01*
X46712Y59702D01*
X46086Y59523D01*
X45818D01*
X45192Y59613D01*
X44834Y59791D01*
X44476Y60060D01*
X44208Y60507D01*
X44029Y61044D01*
Y61133D01*
Y61402D01*
X44118Y61670D01*
X44208Y62117D01*
X44387Y62475D01*
X44655Y62922D01*
X45102Y63191D01*
X45728Y63459D01*
X46355D01*
X46712Y63370D01*
D02*
G37*
G36*
X83853Y83978D02*
X83946D01*
X84131Y83885D01*
X84501Y83793D01*
X85057Y83608D01*
X85612Y83330D01*
X86260Y82960D01*
X87001Y82497D01*
X87742Y81941D01*
X88575Y81200D01*
X89316Y80367D01*
X90149Y79348D01*
X90890Y78145D01*
X91538Y76756D01*
X92186Y75275D01*
X92649Y73423D01*
X93112Y71478D01*
Y71293D01*
X93205Y70923D01*
X93297Y70275D01*
X93390Y69349D01*
X93483Y68793D01*
X93575Y68053D01*
X93668Y67312D01*
X93760Y66386D01*
X93853Y65367D01*
X94038Y64256D01*
Y64164D01*
Y63793D01*
X94131Y63331D01*
Y62682D01*
X94038Y61942D01*
Y61108D01*
X93760Y59164D01*
X93483Y58238D01*
X93112Y57219D01*
X92742Y56294D01*
X92186Y55460D01*
X91445Y54720D01*
X90705Y54071D01*
X89686Y53609D01*
X88575Y53238D01*
X88297D01*
X88020Y53146D01*
X87001D01*
X86446Y53053D01*
X84964Y53146D01*
X83390Y53238D01*
X81723Y53516D01*
X80057Y54071D01*
X78483Y54905D01*
X78390Y54997D01*
X78205Y55182D01*
X77927Y55460D01*
X77650Y55738D01*
Y55831D01*
X77464Y55923D01*
X77279Y56201D01*
X77001Y56571D01*
X76724Y57127D01*
X76446Y57775D01*
X76076Y58608D01*
X75705Y59627D01*
Y59719D01*
X75613Y59905D01*
X75520Y60182D01*
X75427Y60553D01*
X75242Y61108D01*
X75150Y61664D01*
X74779Y63053D01*
X74409Y64812D01*
X74131Y66756D01*
X73946Y68886D01*
X73853Y71201D01*
Y71386D01*
Y71756D01*
Y72312D01*
Y73145D01*
X73946Y73978D01*
Y74997D01*
X74131Y77219D01*
Y77404D01*
X74224Y77775D01*
X74316Y78330D01*
X74409Y78978D01*
X74779Y80460D01*
X75057Y81108D01*
X75335Y81571D01*
X75427Y81663D01*
X75613Y81849D01*
X76076Y82219D01*
X76631Y82589D01*
X77279Y82960D01*
X78205Y83330D01*
X79316Y83700D01*
X80612Y83978D01*
X80890D01*
X81261Y84071D01*
X82649D01*
X83853Y83978D01*
D02*
G37*
G36*
X107556Y81108D02*
X108112D01*
X108482Y81015D01*
X108852D01*
X110241Y80830D01*
X111260Y80645D01*
X112186Y80367D01*
X112834Y80182D01*
X113297Y79997D01*
X113575Y79904D01*
X113760Y79719D01*
X113945Y79348D01*
X114130Y78886D01*
X114408Y78145D01*
X114686Y77497D01*
X114871Y76756D01*
X115056Y76200D01*
X115241Y75830D01*
Y75645D01*
X115612Y73978D01*
X115982Y72219D01*
X116352Y70275D01*
X116630Y68423D01*
X116815Y66849D01*
X116908Y66108D01*
X117000Y65460D01*
Y64997D01*
X117093Y64627D01*
Y64349D01*
Y64256D01*
X117278Y61386D01*
X117093Y58608D01*
X116908Y55831D01*
X116537Y53423D01*
X116260Y52312D01*
X116074Y51294D01*
X115889Y50368D01*
X115704Y49627D01*
X115519Y48979D01*
X115426Y48516D01*
X115334Y48238D01*
Y48146D01*
Y47683D01*
X115241Y47590D01*
Y47498D01*
X114778Y46109D01*
X114408Y45090D01*
X114037Y44257D01*
X113667Y43701D01*
X113297Y43331D01*
X113019Y43146D01*
X112926Y42961D01*
X112834D01*
X112371Y42868D01*
X111815Y42775D01*
X111075Y42590D01*
X110241Y42498D01*
X108482Y42220D01*
X106538Y41942D01*
X104686Y41757D01*
X103852Y41664D01*
X103112Y41572D01*
X102464Y41479D01*
X102001D01*
X101723Y41387D01*
X101630D01*
X97464Y41016D01*
X95519Y40924D01*
X93575Y40831D01*
X91816D01*
X90149Y40924D01*
X88575D01*
X87094Y41016D01*
X85798Y41109D01*
X84594Y41201D01*
X83575Y41294D01*
X82649Y41387D01*
X82001Y41479D01*
X81538D01*
X81168Y41572D01*
X81075D01*
X79594Y41850D01*
X78113Y42127D01*
X76816Y42405D01*
X75613Y42775D01*
X74594Y43053D01*
X73576Y43424D01*
X72650Y43701D01*
X71909Y43979D01*
X71261Y44257D01*
X70613Y44535D01*
X70150Y44813D01*
X69779Y44998D01*
X69224Y45275D01*
X69039Y45368D01*
X67928Y46294D01*
X67002Y47312D01*
X66076Y48423D01*
X65335Y49627D01*
X64780Y50923D01*
X64224Y52127D01*
X63483Y54534D01*
X63205Y55738D01*
X62928Y56757D01*
X62835Y57775D01*
X62650Y58608D01*
Y59257D01*
X62557Y59812D01*
Y60182D01*
Y60275D01*
X62650Y61942D01*
X62743Y63423D01*
X62928Y64719D01*
X63205Y65830D01*
X63483Y66756D01*
X63669Y67404D01*
X63761Y67775D01*
X63854Y67960D01*
X64317Y68978D01*
X64872Y69904D01*
X65983Y71386D01*
X67187Y72589D01*
X68298Y73608D01*
X69224Y74256D01*
X70057Y74719D01*
X70613Y74904D01*
X70705Y74997D01*
X70798D01*
X70705Y74164D01*
X70613Y73238D01*
X70705Y71108D01*
Y70090D01*
Y69256D01*
X70798Y68701D01*
Y68608D01*
Y68515D01*
Y68053D01*
Y67867D01*
Y67775D01*
X70983Y65923D01*
X71168Y64256D01*
X71446Y62775D01*
X71724Y61294D01*
X72094Y59997D01*
X72372Y58886D01*
X72742Y57868D01*
X73113Y56942D01*
X73483Y56201D01*
X73853Y55460D01*
X74131Y54905D01*
X74409Y54442D01*
X74594Y54164D01*
X74779Y53886D01*
X74964Y53794D01*
Y53701D01*
X75983Y52775D01*
X77187Y52034D01*
X78483Y51386D01*
X79779Y50831D01*
X80890Y50460D01*
X81909Y50183D01*
X82279Y50090D01*
X82464D01*
X82649Y49997D01*
X82742D01*
X84409Y49812D01*
X85983Y49720D01*
X87371Y49812D01*
X88668Y49997D01*
X89872Y50275D01*
X90890Y50553D01*
X91816Y50923D01*
X92649Y51386D01*
X93390Y51849D01*
X93945Y52312D01*
X94501Y52683D01*
X94871Y53053D01*
X95242Y53423D01*
X95427Y53701D01*
X95612Y53794D01*
Y53886D01*
X96260Y55090D01*
X96723Y56571D01*
X97093Y58053D01*
X97279Y59627D01*
X97464Y60923D01*
Y62034D01*
Y62497D01*
Y62775D01*
Y62960D01*
Y63053D01*
Y63145D01*
Y63238D01*
X97371Y64164D01*
X97279Y65275D01*
X97093Y66479D01*
X96816Y67775D01*
X96353Y70552D01*
X95797Y73330D01*
X95519Y74719D01*
X95242Y75923D01*
X94964Y77126D01*
X94779Y78052D01*
X94594Y78886D01*
X94408Y79534D01*
X94316Y79997D01*
Y80089D01*
X96908Y80645D01*
X99408Y81015D01*
X101908Y81200D01*
X106815D01*
X107556Y81108D01*
D02*
G37*
G36*
X111630Y39165D02*
X111538Y38794D01*
X111445Y38146D01*
X111075Y37405D01*
X110982Y37220D01*
X110797Y36850D01*
X110426Y36202D01*
X109964Y35461D01*
X109501Y34720D01*
X109130Y33979D01*
X108667Y33424D01*
X108297Y33053D01*
X108112Y32961D01*
X107926Y32868D01*
X107741Y32776D01*
X107464D01*
X107093Y32683D01*
X106538Y32591D01*
X105889Y32498D01*
X104964Y32405D01*
X103945Y32313D01*
X103760D01*
X103482Y32220D01*
X103019Y32128D01*
X102278Y32035D01*
X101260Y31942D01*
X100612Y31850D01*
X99871Y31757D01*
X99038Y31665D01*
X98112Y31572D01*
X94131Y31109D01*
X93945D01*
X93483Y31017D01*
X92742Y30924D01*
X91723Y30831D01*
X91631D01*
X91353Y30739D01*
X90890D01*
X90334Y30646D01*
X89686Y30554D01*
X88946Y30461D01*
X87186Y30368D01*
X85242D01*
X83390Y30461D01*
X81723Y30831D01*
X81075Y31109D01*
X80427Y31387D01*
X80335Y31479D01*
X80150Y31665D01*
X79872Y31942D01*
X79501Y32313D01*
X79131Y32776D01*
X78761Y33424D01*
X78390Y34165D01*
X78113Y34905D01*
Y34998D01*
X78020Y35183D01*
Y35554D01*
X77927Y36016D01*
X77742Y37128D01*
X77650Y38516D01*
X78020D01*
X78483Y38424D01*
X79038D01*
X79872Y38331D01*
X80798Y38239D01*
X81909Y38146D01*
X83205Y37961D01*
X83390D01*
X83760Y37868D01*
X84316Y37776D01*
X84964Y37683D01*
X86446Y37498D01*
X87186D01*
X87835Y37405D01*
X88946D01*
X89594Y37313D01*
X93297D01*
X94501Y37405D01*
X95890D01*
X97371Y37498D01*
X98853Y37590D01*
X100519Y37683D01*
X102278Y37776D01*
X104130Y37961D01*
X104408D01*
X104686Y38053D01*
X105056D01*
X106075Y38239D01*
X107278Y38331D01*
X108482Y38609D01*
X109778Y38794D01*
X110797Y38979D01*
X111260Y39165D01*
X111630Y39257D01*
Y39165D01*
D02*
G37*
D10*
X58000Y14127D02*
X64300D01*
X58000Y8773D02*
X64300D01*
D11*
X60650Y12450D02*
X61650Y11450D01*
X60650Y10450D02*
Y12450D01*
Y10450D02*
X61650Y11450D01*
Y12450D01*
Y10450D02*
Y12450D01*
Y10450D02*
Y11450D01*
X14500Y61800D02*
Y62800D01*
Y60800D02*
Y62800D01*
Y60800D02*
Y61800D01*
X15500Y62800D01*
Y60800D02*
Y62800D01*
X14500Y61800D02*
X15500Y60800D01*
X55350Y95100D02*
Y96100D01*
Y95100D02*
Y97100D01*
Y96100D02*
Y97100D01*
X54350Y95100D02*
X55350Y96100D01*
X54350Y95100D02*
Y97100D01*
X55350Y96100D01*
X46850Y101900D02*
Y100900D01*
X47350D01*
X47516Y101067D01*
Y101733D01*
X47350Y101900D01*
X46850D01*
X47850Y101733D02*
X48016Y101900D01*
X48349D01*
X48516Y101733D01*
Y101566D01*
X48349Y101400D01*
X48183D01*
X48349D01*
X48516Y101233D01*
Y101067D01*
X48349Y100900D01*
X48016D01*
X47850Y101067D01*
X7850Y66000D02*
Y65000D01*
X8350D01*
X8517Y65167D01*
Y65833D01*
X8350Y66000D01*
X7850D01*
X9516Y65000D02*
X8850D01*
X9516Y65666D01*
Y65833D01*
X9349Y66000D01*
X9016D01*
X8850Y65833D01*
X56350Y16100D02*
Y15100D01*
X56850D01*
X57016Y15267D01*
Y15933D01*
X56850Y16100D01*
X56350D01*
X57350Y15100D02*
X57683D01*
X57516D01*
Y16100D01*
X57350Y15933D01*
D12*
X14000Y64300D02*
X16000D01*
X14000Y59300D02*
X16000D01*
X51850Y92700D02*
X57850D01*
X51850Y99500D02*
X57850D01*
M02*
