G04*
G04 #@! TF.GenerationSoftware,Altium Limited,Altium Designer,19.1.7 (138)*
G04*
G04 Layer_Color=32896*
%FSLAX25Y25*%
%MOIN*%
G70*
G01*
G75*
%ADD10C,0.00500*%
%ADD11C,0.00200*%
%ADD35C,0.01000*%
%ADD36C,0.00787*%
G36*
X48500Y98646D02*
X48584D01*
X48648Y98628D01*
X48611Y98646D01*
X48639D01*
X48806Y98591D01*
X48972Y98508D01*
X49222Y98313D01*
X49292Y98216D01*
X49167Y98341D01*
X49132Y98362D01*
X49194Y98313D01*
X49361Y98119D01*
X49389Y98063D01*
X49417Y98036D01*
X49361Y98119D01*
X49292Y98216D01*
X49306Y98202D01*
X49361Y98119D01*
X49417Y98063D01*
Y98036D01*
X49500Y97897D01*
Y96925D01*
Y95981D01*
X49472Y97897D01*
Y96925D01*
Y95981D01*
X49278D01*
Y96203D01*
Y96342D01*
Y96369D01*
X49250Y96397D01*
Y96425D01*
X49278D01*
Y96397D01*
Y96369D01*
X49306Y96203D01*
Y96231D01*
Y96286D01*
Y96342D01*
Y96397D01*
X49278Y96425D01*
X49250Y96453D01*
Y96425D01*
X49194Y96480D01*
Y96508D01*
Y96564D01*
Y96619D01*
X49222Y96536D01*
X49250Y96480D01*
Y96508D01*
Y96536D01*
Y96647D01*
Y96925D01*
X49194D01*
Y96897D01*
X49000D01*
Y96925D01*
X48972D01*
Y96647D01*
Y96619D01*
Y96564D01*
Y96508D01*
Y96480D01*
X49000Y96647D01*
Y96536D01*
Y96508D01*
Y96480D01*
X48972Y96425D01*
X48945D01*
X48889Y96397D01*
Y96342D01*
Y96231D01*
X48917Y96314D01*
X48945Y96397D01*
Y96342D01*
Y96286D01*
Y96231D01*
Y96203D01*
Y95981D01*
X48528D01*
Y96203D01*
Y96342D01*
Y96369D01*
X48556Y96203D01*
Y96231D01*
Y96258D01*
Y96397D01*
Y96425D01*
X48528Y96453D01*
X48500Y96480D01*
X48528Y96425D01*
X48500D01*
Y96453D01*
Y96480D01*
Y96508D01*
Y96564D01*
Y96619D01*
Y96647D01*
Y96897D01*
Y96925D01*
X48250D01*
X48361Y96897D01*
X48250D01*
Y96925D01*
X48223D01*
Y96703D01*
Y96675D01*
Y96619D01*
Y96480D01*
X48250Y96592D01*
Y96564D01*
Y96508D01*
Y96480D01*
Y96425D01*
X48223D01*
X48195Y96369D01*
Y96397D01*
X48223Y96425D01*
X48195D01*
X48139Y96342D01*
Y96314D01*
Y96175D01*
Y95981D01*
X47806D01*
Y96203D01*
X47778Y96314D01*
Y96342D01*
Y96397D01*
X47806Y96314D01*
Y96397D01*
Y96425D01*
X47778Y96453D01*
X47750Y96480D01*
Y96592D01*
Y96647D01*
Y96897D01*
X47501D01*
Y96647D01*
Y96592D01*
X47473Y96480D01*
X47501Y96536D01*
Y96508D01*
Y96480D01*
Y96453D01*
Y96425D01*
X47473D01*
X47417Y96397D01*
Y96369D01*
Y96342D01*
Y96203D01*
Y95981D01*
X47084D01*
Y96175D01*
X47056Y96314D01*
Y96342D01*
Y96369D01*
X47084Y96286D01*
Y96314D01*
Y96342D01*
Y96425D01*
X47056D01*
Y96453D01*
X47028Y96480D01*
X47056Y96425D01*
X47028D01*
Y96480D01*
X47001Y96536D01*
X46973Y96592D01*
Y96675D01*
Y96703D01*
Y96897D01*
X46890D01*
X47028Y96925D01*
X46751D01*
Y96647D01*
X46779Y96897D01*
Y96647D01*
X46751Y96536D01*
Y96480D01*
X46723Y96453D01*
Y96425D01*
Y96369D01*
X46751Y96425D01*
X46723Y96342D01*
X46695Y96314D01*
X46668Y96203D01*
Y95981D01*
X46362D01*
Y96203D01*
Y96231D01*
Y96286D01*
Y96342D01*
X46334Y96397D01*
Y96425D01*
X46306Y96453D01*
Y96480D01*
Y96508D01*
X46279Y96536D01*
Y96564D01*
Y96619D01*
Y96647D01*
Y96897D01*
X46057D01*
Y96647D01*
X46029Y96536D01*
Y96564D01*
Y96619D01*
Y96647D01*
X46001Y96480D01*
Y96453D01*
X45973Y96425D01*
Y96397D01*
X46001Y96425D01*
Y96453D01*
X46029Y96480D01*
Y96425D01*
X46001D01*
Y96397D01*
X45973Y96342D01*
Y96314D01*
Y96231D01*
Y96203D01*
Y95981D01*
X45695D01*
X45307Y95592D01*
X44946Y95231D01*
Y94675D01*
X44890D01*
Y94703D01*
X44585D01*
X44557Y94675D01*
X44529Y94648D01*
X44446D01*
X44279Y94620D01*
X44085Y94564D01*
Y94370D01*
X44057D01*
X44279Y94342D01*
X44418D01*
X44279Y94370D01*
X44529D01*
X44557Y94342D01*
X44529D01*
X44557Y94287D01*
X44640D01*
X44585Y94314D01*
X44557Y94342D01*
X44946D01*
Y93926D01*
X44557D01*
X44613Y93953D01*
X44585D01*
X44557Y93926D01*
X44501Y93898D01*
X44001D01*
Y93620D01*
X44501D01*
X44418Y93648D01*
X44501D01*
X44557Y93620D01*
Y93592D01*
X44585Y93537D01*
X44696D01*
X44640Y93565D01*
X44585Y93592D01*
X44946D01*
Y93176D01*
X44557D01*
X44529Y93148D01*
X44307D01*
X44418Y93176D01*
X44279D01*
X44057Y93148D01*
X44085D01*
Y92926D01*
X44279Y92898D01*
X44363D01*
X44446Y92870D01*
X44529D01*
X44557Y92843D01*
X44585Y92787D01*
X44890D01*
Y92843D01*
X44946D01*
Y92648D01*
Y92454D01*
X44585D01*
X44599Y92468D01*
X44557Y92454D01*
X44529Y92426D01*
X44501D01*
X44363Y92398D01*
X44307D01*
X44418Y92426D01*
X44057D01*
Y92398D01*
X44085D01*
Y92176D01*
X44418D01*
X44474Y92148D01*
X44501D01*
X44529Y92121D01*
X44557D01*
X44501Y92148D01*
X44557D01*
Y92121D01*
X44585Y92093D01*
X44890D01*
Y92121D01*
X44946D01*
Y91732D01*
X44613D01*
X44557Y91704D01*
Y91676D01*
X44501D01*
X44557Y91704D01*
X44585Y91732D01*
X44557D01*
X44529Y91704D01*
X44501Y91676D01*
X44363D01*
X44307Y91649D01*
X44085D01*
X44057Y91537D01*
X44001Y91426D01*
X44501D01*
X44529Y91399D01*
X44557Y91371D01*
X44640D01*
X44724Y91315D01*
X44890D01*
Y91371D01*
X44946D01*
Y91093D01*
X44890D01*
Y91121D01*
X43835D01*
X44890Y91093D01*
X43196D01*
X43057Y91121D01*
X43418D01*
X43141Y91149D01*
X42946D01*
X42807Y91176D01*
X42696D01*
X42641Y91204D01*
X42613D01*
X42669Y91176D01*
X42780Y91149D01*
X42863Y91121D01*
X42669Y91149D01*
X42585D01*
X42363Y91315D01*
X42197Y91482D01*
X42391Y91315D01*
X42557Y91232D01*
X42419Y91343D01*
X42224Y91482D01*
X42058Y91704D01*
X42002Y91871D01*
Y97897D01*
X42058Y98063D01*
X42113Y98147D01*
X42058Y98091D01*
Y98063D01*
X41974Y97897D01*
Y97925D01*
X42030Y98063D01*
X42141Y98230D01*
X42280Y98341D01*
X42419Y98452D01*
X42557Y98535D01*
X42280Y98341D01*
X42169Y98230D01*
X42113Y98147D01*
X42252Y98286D01*
X42502Y98480D01*
X42669Y98535D01*
X42863Y98591D01*
X42891Y98619D01*
X42919Y98646D01*
X42946D01*
X43057Y98674D01*
X48445D01*
X48500Y98646D01*
D02*
G37*
G36*
X32394Y98286D02*
X32505Y98147D01*
X32394Y98258D01*
X32227Y98424D01*
X32394Y98286D01*
D02*
G37*
G36*
X32616Y97925D02*
Y97897D01*
X32533Y98091D01*
X32616Y97925D01*
D02*
G37*
G36*
X26735Y96501D02*
X26729Y96508D01*
Y96536D01*
X26735Y96501D01*
D02*
G37*
G36*
X46306Y96425D02*
X46279D01*
Y96480D01*
X46306Y96425D01*
D02*
G37*
G36*
X32033Y98563D02*
X32088Y98535D01*
X32199Y98424D01*
X32366Y98258D01*
X32505Y98063D01*
X32616Y97897D01*
Y94953D01*
Y94925D01*
Y94814D01*
Y94675D01*
Y94481D01*
Y94259D01*
Y94009D01*
Y93454D01*
X32588Y92898D01*
Y92648D01*
X32616Y92898D01*
Y92870D01*
Y92648D01*
Y92426D01*
X32588Y92259D01*
Y92148D01*
Y92065D01*
X32560Y91926D01*
X32588Y92037D01*
X32560Y91898D01*
Y91871D01*
X32477Y91704D01*
X32533Y91787D01*
X32421Y91565D01*
X32255Y91371D01*
X32088Y91260D01*
X32060Y91204D01*
X32005D01*
X31866Y91149D01*
X31561D01*
X31838Y91176D01*
X31949Y91204D01*
X32033Y91232D01*
X32060D01*
X32082Y91275D01*
X32033Y91232D01*
X31949D01*
X31811Y91204D01*
X31783D01*
X31672Y91176D01*
X31477Y91149D01*
X30561D01*
X30339Y91315D01*
Y91343D01*
X30311Y91371D01*
X30228Y91426D01*
X30172Y91454D01*
Y91510D01*
Y91537D01*
Y91565D01*
Y91593D01*
Y91676D01*
Y91843D01*
Y92176D01*
X30700Y92537D01*
X30144Y92176D01*
X30672Y92537D01*
X31172Y92870D01*
X31116Y93093D01*
X31061Y93259D01*
X31005Y93398D01*
X30977Y93481D01*
Y93509D01*
X30894Y93731D01*
X30977Y93537D01*
Y93509D01*
X31033Y93398D01*
X31080Y93279D01*
X31089Y93231D01*
X31116Y93148D01*
X31144Y93093D01*
X31089Y93259D01*
X31080Y93279D01*
X31061Y93398D01*
X31005Y93537D01*
X30894Y93759D01*
X30450Y93731D01*
X30172Y93703D01*
X29978Y93676D01*
X29867D01*
X29978Y93703D01*
X30172Y93731D01*
X29839D01*
X29672Y93676D01*
X29506Y93926D01*
X29478Y93953D01*
X29422Y94064D01*
X29339Y94175D01*
X29256Y94259D01*
X29145Y94342D01*
X29228Y94259D01*
X29256Y94231D01*
X29283Y94175D01*
X29367Y94064D01*
X29283Y94148D01*
X29256Y94203D01*
X29228Y94231D01*
X29145Y94342D01*
X29367Y94925D01*
X29395Y94995D01*
X29422Y95036D01*
X29478Y95148D01*
X29533Y95286D01*
Y95314D01*
Y95342D01*
X29561Y95397D01*
Y95425D01*
Y95453D01*
X29547Y95439D01*
X29561Y95481D01*
Y95508D01*
Y95536D01*
X29533D01*
X29561Y95508D01*
X29533D01*
Y95536D01*
X29450Y95592D01*
X29395Y95647D01*
X29283Y95731D01*
X29089Y95897D01*
X28839Y96036D01*
X28784D01*
X28700Y96008D01*
X28673Y95981D01*
X28617Y95925D01*
X28478Y95842D01*
X28311Y95703D01*
X27784Y95314D01*
X27506Y95397D01*
X27478Y95425D01*
X27367Y95453D01*
X27256Y95508D01*
X27145Y95536D01*
X27034D01*
X26895Y95981D01*
X26886Y96018D01*
X26867Y96036D01*
Y96064D01*
Y96092D01*
X26886Y96018D01*
X26895Y96008D01*
Y96036D01*
X26867Y96092D01*
Y96119D01*
Y96147D01*
X26840Y96175D01*
Y96203D01*
Y96258D01*
X26821Y96277D01*
X26812Y96342D01*
Y96286D01*
X26821Y96277D01*
X26837Y96169D01*
X26812Y96231D01*
X26784Y96342D01*
X26756Y96397D01*
X26735Y96501D01*
X26756Y96480D01*
Y96453D01*
Y96425D01*
Y96397D01*
X26791D01*
X26729Y96564D01*
Y96592D01*
X26701Y96619D01*
Y96703D01*
X26618Y96730D01*
Y96703D01*
X26673Y96675D01*
X26701Y96619D01*
X26673Y96647D01*
X26618Y96703D01*
X26590Y96730D01*
X26534D01*
X26506Y96758D01*
X26007D01*
X25923Y96730D01*
X25896D01*
X25840Y96703D01*
X25729D01*
Y96647D01*
X25701D01*
Y96619D01*
X25673Y96536D01*
Y96508D01*
Y96480D01*
X25618Y96342D01*
X25562Y96203D01*
X25534Y96119D01*
Y96064D01*
X25479Y95925D01*
X25451Y95786D01*
X25407Y95719D01*
X25396Y95675D01*
Y95703D01*
X25407Y95719D01*
X25423Y95786D01*
X25451Y95897D01*
X25507Y96064D01*
X25479Y96036D01*
X25451Y95925D01*
X25423Y95814D01*
X25368Y95675D01*
X25340Y95620D01*
Y95564D01*
Y95536D01*
X25285D01*
X25257Y95508D01*
X25174D01*
X25090Y95453D01*
X25201D01*
X25229Y95481D01*
X25340Y95508D01*
X25257Y95453D01*
X25201D01*
X25062Y95425D01*
X25090Y96703D01*
X25118Y97952D01*
X25201Y98091D01*
Y98119D01*
X25229Y98147D01*
X25312Y98258D01*
X25451Y98424D01*
X25646Y98563D01*
X25812Y98646D01*
X25784D01*
X25646Y98563D01*
X25618D01*
X25590Y98535D01*
X25479Y98452D01*
X25590Y98563D01*
X25618Y98591D01*
X25646D01*
X25784Y98674D01*
X31894D01*
X32033Y98563D01*
D02*
G37*
G36*
X46334Y96397D02*
Y96342D01*
Y96203D01*
X46306Y96369D01*
Y96397D01*
Y96425D01*
X46334Y96397D01*
D02*
G37*
G36*
X26867Y96092D02*
X26840Y96147D01*
X26837Y96169D01*
X26867Y96092D01*
D02*
G37*
G36*
X41086Y97925D02*
Y95981D01*
X41030Y97897D01*
X40975Y98091D01*
X41086Y97925D01*
D02*
G37*
G36*
X37753Y95925D02*
X37837Y95897D01*
X37864Y95869D01*
X37809D01*
X37670Y95897D01*
X37448Y95925D01*
X37281D01*
X37503Y95897D01*
X37614D01*
X37725Y95869D01*
X37864Y95842D01*
X37892D01*
X37975Y95786D01*
X38114Y95731D01*
X38253Y95620D01*
X38447Y95508D01*
X38337Y95620D01*
X38503Y95481D01*
X38670Y95314D01*
X38503Y95453D01*
X38614Y95342D01*
X38781Y95175D01*
X38920Y94953D01*
Y94925D01*
X38947Y94898D01*
X39003Y94703D01*
X39059Y94453D01*
X39086Y94203D01*
Y94175D01*
Y94120D01*
X39059Y94009D01*
X39031Y93870D01*
X38920Y93537D01*
X38836Y93342D01*
X38725Y93176D01*
X38697Y93148D01*
X38670Y93093D01*
X38531Y92926D01*
X38364Y92676D01*
X38531Y92898D01*
X38753Y93176D01*
X38531Y92870D01*
X38392Y92648D01*
X38309Y92509D01*
X38281Y92454D01*
X38142Y92093D01*
X38059Y91760D01*
X38031Y91649D01*
X38003Y91537D01*
Y91635D01*
X37975Y91454D01*
Y91426D01*
Y91315D01*
X38003Y91371D01*
Y91343D01*
Y91315D01*
Y91287D01*
Y91260D01*
X37975D01*
Y91287D01*
X37864D01*
X37753Y91260D01*
X37281D01*
X36615Y91287D01*
Y91565D01*
Y91593D01*
X36587Y91704D01*
X36559Y91871D01*
X36504Y92065D01*
X36420Y92315D01*
X36309Y92565D01*
X36143Y92815D01*
X36013Y92981D01*
X35976Y93037D01*
X35948Y93065D01*
X35819Y93231D01*
X35893Y93120D01*
X35921Y93093D01*
X35948Y93065D01*
X36013Y92981D01*
X36031Y92954D01*
X36143Y92815D01*
X36254Y92620D01*
X36365Y92398D01*
X36448Y92148D01*
X36531Y91871D01*
X36559Y91565D01*
X36504Y91871D01*
X36448Y92148D01*
X36337Y92398D01*
X36226Y92620D01*
X36115Y92787D01*
X36031Y92926D01*
X35976Y93009D01*
X35948Y93037D01*
X35754Y93315D01*
X35615Y93565D01*
X35559Y93676D01*
X35532Y93759D01*
X35504Y93814D01*
Y93842D01*
X35476Y94120D01*
X35504Y94370D01*
Y94342D01*
X35532Y94620D01*
Y94675D01*
X35587Y94787D01*
X35532Y94620D01*
X35643Y94870D01*
X35717Y95018D01*
X35671Y94953D01*
X35698Y95064D01*
X35726Y95092D01*
X35976Y95397D01*
X36254Y95647D01*
X36559Y95786D01*
X36837Y95897D01*
X37115Y95925D01*
X37309Y95953D01*
X37642D01*
X37753Y95925D01*
D02*
G37*
G36*
X28756Y95981D02*
X28645Y95897D01*
X28561Y95842D01*
X28756Y95981D01*
X28784Y96008D01*
X28811D01*
X28756Y95981D01*
D02*
G37*
G36*
X28367Y95703D02*
X28311Y95675D01*
X28339Y95703D01*
X28395Y95731D01*
X28478Y95786D01*
X28367Y95703D01*
D02*
G37*
G36*
X25368Y95592D02*
Y95564D01*
X25340Y95536D01*
X25368Y95620D01*
X25396Y95675D01*
X25368Y95592D01*
D02*
G37*
G36*
X47945Y95064D02*
X49472D01*
Y94814D01*
X46668D01*
X46529Y94787D01*
X46473D01*
X46612Y94814D01*
X46417D01*
X46334Y94787D01*
X46306Y94759D01*
X46286Y94745D01*
X46140Y94620D01*
X46084Y94537D01*
X46057Y94509D01*
Y94537D01*
X46084Y94564D01*
X46140Y94620D01*
X46223Y94703D01*
X46286Y94745D01*
X46334Y94787D01*
X46223Y94703D01*
X46140Y94648D01*
X46057Y94537D01*
X46029Y94509D01*
Y94425D01*
Y94398D01*
Y94370D01*
X46001Y94203D01*
Y94175D01*
Y94148D01*
Y94064D01*
Y93926D01*
Y93731D01*
Y93509D01*
Y93231D01*
Y92870D01*
Y92815D01*
Y92704D01*
Y92537D01*
Y92315D01*
Y91871D01*
X46029Y91676D01*
Y91537D01*
Y91482D01*
Y91426D01*
X46057Y91315D01*
Y91232D01*
X46029Y91287D01*
Y91204D01*
X46057Y91121D01*
X45834D01*
X45973Y91093D01*
X45834D01*
X45779Y91149D01*
Y91176D01*
Y91204D01*
X45751Y91260D01*
Y91287D01*
Y91399D01*
Y91537D01*
Y91649D01*
Y91676D01*
Y92010D01*
X45779Y91704D01*
Y91760D01*
Y91871D01*
Y91982D01*
Y92148D01*
Y92343D01*
Y92759D01*
Y92787D01*
Y92815D01*
Y92981D01*
Y93176D01*
Y93454D01*
Y93703D01*
Y93870D01*
X45751Y93676D01*
Y93787D01*
Y93981D01*
Y94120D01*
Y94231D01*
Y94259D01*
Y94287D01*
X45779Y94453D01*
X45834Y94592D01*
X45862Y94703D01*
X45890Y94731D01*
X45862Y94675D01*
X45834Y94564D01*
X45829Y94537D01*
X45862Y94620D01*
X45918Y94731D01*
X45945Y94759D01*
X46001Y94842D01*
X46140Y94925D01*
X46279Y95009D01*
X46223Y94981D01*
X46140Y94953D01*
X46001Y94870D01*
X46140Y94981D01*
X46223Y95036D01*
X46279Y95064D01*
X46640D01*
X46445Y95036D01*
X46362D01*
X46306Y95009D01*
X46390D01*
X46445Y95036D01*
X46584D01*
X46834Y95064D01*
X46779D01*
X46973Y95092D01*
X49500D01*
X47945Y95064D01*
D02*
G37*
G36*
X29533Y95397D02*
X29506Y95314D01*
X29478Y95203D01*
X29432Y95110D01*
X29422Y95064D01*
X29395Y94995D01*
X29385Y94981D01*
X29367Y94925D01*
Y94953D01*
X29385Y94981D01*
X29422Y95092D01*
X29432Y95110D01*
X29450Y95203D01*
X29478Y95286D01*
X29506Y95314D01*
Y95397D01*
X29533Y95425D01*
X29547Y95439D01*
X29533Y95397D01*
D02*
G37*
G36*
X44557Y94648D02*
Y94620D01*
X44501D01*
X44557Y94648D01*
Y94675D01*
X44613D01*
X44557Y94648D01*
D02*
G37*
G36*
X40503Y98563D02*
X40558Y98535D01*
X40669Y98424D01*
X40836Y98258D01*
X40975Y98063D01*
X41030Y97897D01*
Y95981D01*
Y94064D01*
X41086D01*
Y94037D01*
X40280D01*
Y94064D01*
X40253D01*
Y93731D01*
X41030D01*
Y92787D01*
Y91871D01*
X41086Y93731D01*
Y92787D01*
Y91871D01*
X41002Y91732D01*
X40881Y91576D01*
X40808Y91454D01*
X40586Y91287D01*
X40558Y91269D01*
X40447Y91176D01*
X40391Y91149D01*
X40419Y91176D01*
X40558Y91269D01*
X40614Y91315D01*
X40808Y91482D01*
X40881Y91576D01*
X40951Y91692D01*
X40919Y91676D01*
X40808Y91510D01*
X40586Y91343D01*
X40475Y91260D01*
X40336Y91204D01*
X40308D01*
X40253Y91176D01*
X40169Y91149D01*
X39253D01*
X38337Y91121D01*
Y91454D01*
X38309Y91121D01*
Y91454D01*
X38337Y91676D01*
Y91510D01*
X38364Y91676D01*
X38392Y91843D01*
X38420Y92010D01*
Y92037D01*
X38447Y92093D01*
X38503Y92176D01*
X38559Y92287D01*
X38725Y92593D01*
X38947Y92898D01*
Y92926D01*
X39003Y92954D01*
X39114Y93120D01*
X39253Y93398D01*
X39308Y93565D01*
X39336Y93648D01*
X39364Y93731D01*
Y93759D01*
X39367Y93765D01*
X39392Y94037D01*
Y94314D01*
Y94425D01*
X39364Y94509D01*
Y94537D01*
Y94564D01*
X39336Y94731D01*
X39308Y94787D01*
Y94814D01*
X39114Y95231D01*
X38892Y95536D01*
X39092Y95292D01*
X39114Y95259D01*
X39253Y94981D01*
X39336Y94759D01*
X39376Y94660D01*
X39392Y94564D01*
Y94537D01*
Y94509D01*
X39399Y94488D01*
X39419Y94259D01*
Y94314D01*
Y94425D01*
X39399Y94488D01*
X39392Y94564D01*
Y94592D01*
Y94620D01*
X39376Y94660D01*
X39364Y94731D01*
X39336Y94787D01*
Y94814D01*
X39142Y95231D01*
X39092Y95292D01*
X38947Y95508D01*
X38697Y95786D01*
X38364Y96008D01*
X37948Y96175D01*
X37938D01*
X38087Y96119D01*
X38337Y95981D01*
X38614Y95786D01*
X38337Y95953D01*
X38087Y96092D01*
X37864Y96147D01*
X37725Y96203D01*
X37670D01*
X37392Y96231D01*
X37170D01*
X37003Y96203D01*
X36948D01*
X36531Y96092D01*
X36170Y95897D01*
X35893Y95675D01*
X35671Y95453D01*
X35504Y95203D01*
X35400Y95078D01*
X35282Y94842D01*
X35254Y94787D01*
X35226Y94648D01*
X35199Y94453D01*
X35171Y94203D01*
Y94175D01*
Y94148D01*
X35199Y93981D01*
Y93953D01*
X35226Y93787D01*
X35254Y93648D01*
X35282Y93620D01*
X35393Y93370D01*
X35504Y93148D01*
X35615Y93037D01*
X35643Y92981D01*
X35893Y92620D01*
X36087Y92287D01*
X36143Y92176D01*
X36059Y92287D01*
X35893Y92593D01*
X35754Y92759D01*
X35719Y92801D01*
X35754Y92731D01*
X35837Y92620D01*
X36031Y92315D01*
X36115Y92148D01*
X36170Y92010D01*
Y91982D01*
Y91954D01*
X36198Y91787D01*
X36226Y91565D01*
X36254Y91260D01*
Y91121D01*
X35032D01*
X34837Y91149D01*
X34671D01*
X34476Y91176D01*
X34338D01*
X34254Y91204D01*
X34227D01*
X34171Y91232D01*
X34004Y91343D01*
X33782Y91537D01*
X33588Y91815D01*
Y91843D01*
X33560Y91898D01*
Y91982D01*
X33532Y92176D01*
Y92232D01*
X33505Y92482D01*
Y92620D01*
Y92731D01*
Y92815D01*
Y92843D01*
Y93731D01*
X33532Y92843D01*
Y93676D01*
X34338D01*
Y93731D01*
X34310D01*
Y94037D01*
X33949D01*
X33532Y94064D01*
Y97897D01*
X33560Y98036D01*
X33699Y98258D01*
X33893Y98424D01*
X34032Y98535D01*
X34060Y98563D01*
X34088D01*
X34254Y98674D01*
X40364D01*
X40503Y98563D01*
D02*
G37*
G36*
X46029Y94231D02*
Y94287D01*
Y94370D01*
X46057Y94425D01*
X46029Y94231D01*
D02*
G37*
G36*
X26506Y94148D02*
X26812Y94092D01*
X26923Y94037D01*
X26812Y94064D01*
X26506Y94120D01*
X26340D01*
X26479Y94092D01*
X26784Y94064D01*
X27117Y93981D01*
X27145Y93953D01*
X27256Y93898D01*
X27423Y93814D01*
X27645Y93648D01*
X27867Y93454D01*
X27728Y93592D01*
X27451Y93814D01*
X27728Y93620D01*
X27951Y93370D01*
X28145Y93120D01*
X28284Y92898D01*
X28325Y92836D01*
X28284Y92926D01*
X28136Y93159D01*
X27951Y93370D01*
X28089Y93231D01*
X28136Y93159D01*
X28145Y93148D01*
X28284Y92926D01*
X28395Y92731D01*
X28325Y92836D01*
X28450Y92565D01*
Y92537D01*
X28478Y92482D01*
X28506Y92370D01*
X28534Y92232D01*
X28561Y91898D01*
X28534Y91510D01*
Y91482D01*
Y91426D01*
X28506Y91287D01*
Y91260D01*
X28534Y91371D01*
X28589Y91510D01*
X28561Y91371D01*
X28534Y91315D01*
Y91287D01*
Y91232D01*
Y91204D01*
X28506D01*
Y91149D01*
X28145D01*
X28228Y91176D01*
X28423D01*
X28478Y91204D01*
X28311D01*
X28228Y91176D01*
X28062D01*
X27812Y91149D01*
X27506D01*
X27367Y91121D01*
X25812D01*
X25590Y91232D01*
X25423Y91371D01*
X25285Y91537D01*
X25201Y91676D01*
X25312Y91537D01*
X25174Y91732D01*
X25062Y91871D01*
Y93898D01*
X25229Y93953D01*
X25534Y94064D01*
X25812Y94120D01*
X25951Y94148D01*
X26062Y94175D01*
X26145D01*
X26506Y94148D01*
D02*
G37*
G36*
X44557Y93898D02*
X44501Y93842D01*
X44307D01*
X44418Y93870D01*
X44501Y93898D01*
X44529D01*
X44557Y93926D01*
Y93898D01*
D02*
G37*
G36*
X29672Y93676D02*
X29645D01*
X29450Y93926D01*
X29672Y93676D01*
D02*
G37*
G36*
X44557Y92870D02*
X44529Y92898D01*
X44557D01*
Y92870D01*
D02*
G37*
G36*
X44585Y92843D02*
X44557D01*
Y92870D01*
X44585Y92843D01*
D02*
G37*
G36*
X39142Y93204D02*
X38947Y92926D01*
X38920Y92898D01*
X38892Y92843D01*
X38809Y92759D01*
X38864Y92843D01*
X38892Y92898D01*
X38920Y92926D01*
X39114Y93204D01*
X39253Y93454D01*
X39142Y93204D01*
D02*
G37*
G36*
X44557Y91399D02*
X44501Y91426D01*
X44557D01*
Y91399D01*
D02*
G37*
G36*
X36254Y91732D02*
X36281Y91510D01*
Y91315D01*
X36254Y91510D01*
X36226Y91732D01*
X36198Y92010D01*
X36254Y91732D01*
D02*
G37*
G36*
X33560Y91898D02*
Y91843D01*
X33588Y91760D01*
Y91732D01*
X33616Y91676D01*
X33754Y91510D01*
X33949Y91315D01*
X33727Y91510D01*
X33616Y91676D01*
X33560Y91732D01*
Y91760D01*
X33532Y91954D01*
Y92010D01*
Y92037D01*
X33560Y91898D01*
D02*
G37*
G36*
X30200Y91426D02*
X30339Y91287D01*
X30255Y91343D01*
X30228Y91399D01*
X30144Y91426D01*
Y91454D01*
X30200Y91426D01*
D02*
G37*
G36*
X40280Y91121D02*
X40141D01*
X40280Y91149D01*
X40364D01*
X40280Y91121D01*
D02*
G37*
G36*
X40225Y89955D02*
X41252D01*
X41391Y89899D01*
X41447Y89871D01*
X41521Y89816D01*
X41391Y89927D01*
X41586Y89788D01*
X41752Y89621D01*
X41835Y89510D01*
X41863Y89482D01*
Y89455D01*
X41891Y89371D01*
Y89288D01*
Y89232D01*
Y89205D01*
X41863Y89371D01*
Y89232D01*
Y89066D01*
X41891Y88872D01*
Y88927D01*
Y89038D01*
Y89121D01*
X41919Y89010D01*
Y88760D01*
Y88621D01*
Y88511D01*
Y88427D01*
Y88399D01*
Y88149D01*
Y87927D01*
Y87761D01*
X41891Y87622D01*
Y87650D01*
Y87677D01*
X41863Y87455D01*
X41835Y87261D01*
X41819Y87177D01*
X41808Y87150D01*
X41766Y87025D01*
X41780Y87039D01*
X41808Y87122D01*
X41819Y87177D01*
X41863Y87289D01*
X41877Y87330D01*
X41891Y87400D01*
Y87372D01*
X41877Y87330D01*
X41863Y87261D01*
X41835Y87122D01*
X41808Y87039D01*
Y86983D01*
X41669Y86789D01*
X41475Y86594D01*
X41308Y86483D01*
X41141Y86372D01*
X40975Y86289D01*
X41113Y86372D01*
X41130Y86383D01*
X41169Y86400D01*
X41308Y86499D01*
X41475Y86594D01*
X41613Y86789D01*
X41502Y86650D01*
X41363Y86539D01*
X41308Y86499D01*
X41280Y86483D01*
X41130Y86383D01*
X40975Y86317D01*
X40725Y86233D01*
X40669D01*
X40586Y86206D01*
X40503Y86178D01*
X40141D01*
X40280Y86206D01*
X39225D01*
Y86178D01*
X39197D01*
Y86678D01*
X39225D01*
Y86650D01*
X40586D01*
X40697Y86678D01*
X40808D01*
X40836Y86733D01*
X41002Y86844D01*
X41169Y87066D01*
X41308Y87344D01*
Y87372D01*
X41336Y87427D01*
Y87511D01*
Y87622D01*
X41363Y87788D01*
Y87900D01*
Y88066D01*
Y88205D01*
Y88316D01*
Y88344D01*
Y88399D01*
X41336Y88621D01*
Y88788D01*
X41308Y88927D01*
Y89010D01*
Y89094D01*
Y89121D01*
Y89149D01*
Y89205D01*
X41280Y89260D01*
Y89316D01*
X41308Y89260D01*
Y89205D01*
X41336Y89066D01*
Y88927D01*
X41363Y88705D01*
Y88955D01*
Y89066D01*
Y89149D01*
Y89177D01*
X41336Y89232D01*
X41308Y89288D01*
X41280Y89344D01*
X41252Y89371D01*
X41225Y89427D01*
X41141Y89482D01*
X41086Y89510D01*
X41030D01*
X40919Y89538D01*
X40725Y89566D01*
X40586D01*
X40697Y89538D01*
X40836Y89510D01*
X39975D01*
X40058Y89538D01*
X40225Y89566D01*
X40058D01*
X40003Y89538D01*
X39919Y89510D01*
X39864D01*
X39836Y89482D01*
X39808Y89427D01*
Y89371D01*
Y89344D01*
Y89316D01*
X39836Y89371D01*
Y89399D01*
X39857Y89420D01*
X39836Y89316D01*
X39808Y89205D01*
Y89177D01*
Y89149D01*
Y88844D01*
Y88788D01*
X39197D01*
X39225Y89149D01*
X39234Y89242D01*
X39253Y89316D01*
X39281Y89455D01*
X39303Y89543D01*
X39253Y89427D01*
X39234Y89242D01*
X39225Y89205D01*
Y89316D01*
Y89455D01*
X39253Y89538D01*
Y89566D01*
X39308Y89649D01*
X39364Y89732D01*
X39419Y89788D01*
X39447Y89816D01*
X39531Y89899D01*
X39614Y89927D01*
X39669Y89955D01*
X39697D01*
X39614Y89927D01*
X39531Y89871D01*
X39475Y89816D01*
X39447Y89788D01*
X39419Y89760D01*
X39403Y89732D01*
X39336Y89649D01*
X39308Y89593D01*
Y89566D01*
X39303Y89543D01*
X39336Y89621D01*
X39403Y89732D01*
X39447Y89788D01*
X39531Y89843D01*
X39669Y89899D01*
X39864Y89927D01*
X40030Y89955D01*
X39781D01*
X39892Y89982D01*
X40364D01*
X40225Y89955D01*
D02*
G37*
G36*
X39864Y89427D02*
X39857Y89420D01*
X39864Y89455D01*
X39892Y89482D01*
X39864Y89427D01*
D02*
G37*
G36*
X41030Y89482D02*
X41113D01*
X41169Y89455D01*
X41225Y89399D01*
X41113Y89455D01*
X40836Y89510D01*
X40919D01*
X41030Y89482D01*
D02*
G37*
G36*
X36531Y89066D02*
X37587D01*
X37725Y89038D01*
X37753D01*
X37864Y89010D01*
X37975Y88955D01*
X38087Y88927D01*
X38114Y88899D01*
X38087D01*
X38059Y88927D01*
X37975Y88955D01*
X38059Y88872D01*
X38087Y88844D01*
X38198Y88760D01*
X38337Y88621D01*
X38447Y88427D01*
X38475Y88288D01*
X38503Y88261D01*
Y88233D01*
Y88177D01*
Y88066D01*
Y87872D01*
Y87677D01*
Y87622D01*
Y87594D01*
Y86928D01*
X38447Y86761D01*
X38253Y86511D01*
X38031Y86317D01*
X37864Y86233D01*
X37837Y86206D01*
X37781D01*
X37837Y86233D01*
X38003Y86344D01*
X38225Y86511D01*
X38420Y86761D01*
X38475Y86928D01*
X38420Y86789D01*
Y86761D01*
X38364Y86705D01*
X38253Y86567D01*
X38031Y86372D01*
X37892Y86289D01*
X37753Y86233D01*
X37698D01*
X37614Y86206D01*
X37587D01*
X37503Y86178D01*
X37059D01*
X37226Y86206D01*
X36031D01*
Y90482D01*
X35976D01*
Y90510D01*
X36531D01*
Y89066D01*
D02*
G37*
G36*
X35143Y88094D02*
Y86206D01*
X34587D01*
Y87066D01*
Y87094D01*
Y87122D01*
Y87289D01*
Y87511D01*
Y87705D01*
X34560Y87844D01*
Y87900D01*
Y87955D01*
Y87983D01*
X33893D01*
X33255Y87955D01*
Y86178D01*
X33227D01*
Y86206D01*
X32644D01*
Y89982D01*
X33255D01*
Y88455D01*
X34587D01*
Y89982D01*
X35143D01*
Y88094D01*
D02*
G37*
G36*
X40780Y86705D02*
X40725D01*
X41002Y86900D01*
X40780Y86705D01*
D02*
G37*
G36*
X40475Y86678D02*
X40447D01*
X40558Y86705D01*
X40586D01*
X40475Y86678D01*
D02*
G37*
G36*
X48886Y113412D02*
X49052Y113387D01*
X49202Y113353D01*
X49336Y113320D01*
X49444Y113278D01*
X49527Y113245D01*
X49560Y113228D01*
X49586Y113220D01*
X49594Y113212D01*
X49602D01*
X49752Y113128D01*
X49885Y113037D01*
X50010Y112945D01*
X50110Y112854D01*
X50202Y112770D01*
X50260Y112695D01*
X50302Y112654D01*
X50318Y112645D01*
Y112637D01*
X50185Y112704D01*
X50069Y112745D01*
X50019Y112754D01*
X49985Y112762D01*
X49960Y112770D01*
X49952D01*
X49810Y112787D01*
X49744Y112795D01*
X49685Y112787D01*
X49602D01*
X49577Y112779D01*
X49569D01*
X49435Y112754D01*
X49377Y112737D01*
X49319Y112712D01*
X49277Y112695D01*
X49244Y112687D01*
X49227Y112670D01*
X49219D01*
X49102Y112604D01*
X49011Y112537D01*
X48977Y112504D01*
X48952Y112479D01*
X48944Y112462D01*
X48936Y112454D01*
X48836Y112470D01*
X48744Y112479D01*
X48586D01*
X48528Y112470D01*
X48478Y112462D01*
X48444Y112454D01*
X48436D01*
X48344Y112429D01*
X48269Y112396D01*
X48194Y112362D01*
X48136Y112329D01*
X48078Y112295D01*
X48044Y112271D01*
X48019Y112254D01*
X48011Y112246D01*
X47886Y112121D01*
X47844Y112062D01*
X47803Y111996D01*
X47769Y111946D01*
X47745Y111904D01*
X47736Y111871D01*
X47728Y111862D01*
X47695Y111779D01*
X47661Y111687D01*
X47645Y111596D01*
X47636Y111512D01*
X47628Y111446D01*
X47620Y111388D01*
Y111354D01*
Y111338D01*
X47628Y111204D01*
X47645Y111079D01*
X47670Y110963D01*
X47695Y110871D01*
X47728Y110796D01*
X47753Y110746D01*
X47769Y110705D01*
X47778Y110696D01*
X47836Y110605D01*
X47903Y110530D01*
X47978Y110463D01*
X48036Y110405D01*
X48094Y110363D01*
X48136Y110330D01*
X48169Y110313D01*
X48178Y110305D01*
X48269Y110263D01*
X48361Y110230D01*
X48453Y110213D01*
X48528Y110196D01*
X48603Y110188D01*
X48652Y110180D01*
X48702D01*
X48803Y110188D01*
X48902Y110196D01*
X48994Y110221D01*
X49069Y110246D01*
X49136Y110263D01*
X49186Y110288D01*
X49219Y110296D01*
X49227Y110305D01*
X49311Y110355D01*
X49394Y110413D01*
X49461Y110480D01*
X49519Y110538D01*
X49560Y110596D01*
X49602Y110638D01*
X49619Y110671D01*
X49627Y110679D01*
X49677Y110780D01*
X49719Y110888D01*
X49744Y110996D01*
X49769Y111096D01*
X49777Y111188D01*
X49785Y111254D01*
Y111304D01*
Y111321D01*
X49777Y111404D01*
X49769Y111471D01*
X49752Y111538D01*
X49735Y111596D01*
X49719Y111637D01*
X49702Y111671D01*
X49685Y111687D01*
Y111696D01*
X49602Y111796D01*
X49519Y111862D01*
X49477Y111887D01*
X49452Y111904D01*
X49435Y111912D01*
X49427D01*
X49319Y111954D01*
X49219Y111971D01*
X49177Y111979D01*
X49119D01*
X49011Y111962D01*
X48919Y111937D01*
X48886Y111921D01*
X48861Y111912D01*
X48852Y111896D01*
X48844D01*
X48861Y111971D01*
X48877Y112046D01*
X48902Y112104D01*
X48927Y112162D01*
X48952Y112204D01*
X48977Y112237D01*
X48986Y112254D01*
X48994Y112262D01*
X49094Y112362D01*
X49194Y112429D01*
X49236Y112454D01*
X49269Y112470D01*
X49294Y112487D01*
X49302D01*
X49444Y112537D01*
X49510Y112554D01*
X49569Y112562D01*
X49627Y112570D01*
X49669Y112579D01*
X49702D01*
X49860Y112570D01*
X49927Y112562D01*
X49994Y112545D01*
X50044Y112537D01*
X50085Y112521D01*
X50110Y112512D01*
X50119D01*
X50260Y112454D01*
X50318Y112412D01*
X50368Y112379D01*
X50419Y112346D01*
X50452Y112320D01*
X50468Y112304D01*
X50477Y112295D01*
X50535Y112237D01*
X50577Y112179D01*
X50652Y112062D01*
X50668Y112012D01*
X50685Y111971D01*
X50702Y111946D01*
Y111937D01*
X50752Y111729D01*
X50768Y111529D01*
X50777Y111346D01*
Y111171D01*
X50760Y111029D01*
X50752Y110971D01*
X50743Y110921D01*
X50735Y110888D01*
Y110854D01*
X50727Y110838D01*
Y110829D01*
X50660Y110629D01*
X50577Y110446D01*
X50485Y110280D01*
X50393Y110138D01*
X50310Y110021D01*
X50235Y109930D01*
X50210Y109897D01*
X50185Y109871D01*
X50177Y109863D01*
X50169Y109855D01*
X50027Y109730D01*
X49885Y109622D01*
X49744Y109538D01*
X49619Y109472D01*
X49510Y109413D01*
X49419Y109380D01*
X49386Y109372D01*
X49361Y109363D01*
X49352Y109355D01*
X49344D01*
X49169Y109313D01*
X49002Y109280D01*
X48844Y109272D01*
X48702Y109263D01*
X48586D01*
X48494Y109272D01*
X48461D01*
X48436Y109280D01*
X48419D01*
X48244Y109313D01*
X48086Y109355D01*
X47936Y109413D01*
X47803Y109463D01*
X47695Y109513D01*
X47611Y109555D01*
X47586Y109572D01*
X47561Y109588D01*
X47553Y109597D01*
X47545D01*
X47403Y109705D01*
X47270Y109813D01*
X47153Y109930D01*
X47061Y110046D01*
X46986Y110146D01*
X46928Y110221D01*
X46911Y110255D01*
X46895Y110280D01*
X46887Y110288D01*
Y110296D01*
X46787Y110496D01*
X46720Y110688D01*
X46670Y110871D01*
X46637Y111029D01*
X46620Y111171D01*
X46612Y111229D01*
Y111279D01*
Y111321D01*
Y111346D01*
Y111363D01*
Y111371D01*
X46628Y111571D01*
X46662Y111762D01*
X46712Y111937D01*
X46762Y112087D01*
X46812Y112204D01*
X46828Y112254D01*
X46853Y112304D01*
X46870Y112337D01*
X46887Y112362D01*
X46895Y112371D01*
Y112379D01*
X47003Y112545D01*
X47120Y112687D01*
X47245Y112820D01*
X47361Y112929D01*
X47470Y113012D01*
X47561Y113079D01*
X47586Y113095D01*
X47611Y113112D01*
X47628Y113128D01*
X47636D01*
X47820Y113228D01*
X48003Y113295D01*
X48186Y113345D01*
X48353Y113387D01*
X48494Y113403D01*
X48561Y113412D01*
X48611D01*
X48652Y113420D01*
X48711D01*
X48886Y113412D01*
D02*
G37*
G36*
X37782Y113428D02*
X37940Y113412D01*
X38082Y113395D01*
X38207Y113370D01*
X38315Y113337D01*
X38390Y113320D01*
X38423Y113312D01*
X38448Y113303D01*
X38457Y113295D01*
X38465D01*
X38615Y113237D01*
X38748Y113162D01*
X38873Y113087D01*
X38973Y113012D01*
X39065Y112937D01*
X39123Y112879D01*
X39165Y112845D01*
X39181Y112829D01*
X39281Y112720D01*
X39365Y112604D01*
X39439Y112487D01*
X39498Y112379D01*
X39548Y112287D01*
X39581Y112221D01*
X39598Y112171D01*
X39606Y112162D01*
Y112154D01*
X39656Y112012D01*
X39689Y111879D01*
X39714Y111746D01*
X39731Y111629D01*
X39748Y111529D01*
X39756Y111446D01*
Y111396D01*
Y111388D01*
Y111379D01*
Y111238D01*
X39739Y111096D01*
X39723Y110963D01*
X39698Y110846D01*
X39681Y110746D01*
X39656Y110671D01*
X39648Y110621D01*
X39639Y110613D01*
Y110605D01*
X39590Y110471D01*
X39523Y110338D01*
X39465Y110230D01*
X39398Y110130D01*
X39348Y110046D01*
X39298Y109980D01*
X39265Y109947D01*
X39256Y109930D01*
X39156Y109821D01*
X39048Y109730D01*
X38940Y109647D01*
X38840Y109580D01*
X38748Y109522D01*
X38682Y109480D01*
X38631Y109455D01*
X38615Y109447D01*
X38465Y109388D01*
X38307Y109347D01*
X38157Y109313D01*
X38015Y109297D01*
X37890Y109280D01*
X37840D01*
X37790Y109272D01*
X37707D01*
X37507Y109280D01*
X37324Y109305D01*
X37157Y109338D01*
X37016Y109372D01*
X36899Y109405D01*
X36807Y109438D01*
X36774Y109455D01*
X36749Y109463D01*
X36741Y109472D01*
X36732D01*
X36574Y109555D01*
X36432Y109663D01*
X36307Y109772D01*
X36191Y109880D01*
X36108Y109980D01*
X36041Y110063D01*
X36016Y110096D01*
X35999Y110121D01*
X35983Y110130D01*
Y110138D01*
X36791Y110530D01*
X36882Y110446D01*
X36974Y110380D01*
X37066Y110321D01*
X37149Y110271D01*
X37224Y110238D01*
X37282Y110213D01*
X37315Y110205D01*
X37332Y110196D01*
X37449Y110171D01*
X37557Y110155D01*
X37657Y110146D01*
X37749Y110138D01*
X37824Y110146D01*
X37882D01*
X37915Y110155D01*
X37932D01*
X38082Y110196D01*
X38140Y110213D01*
X38198Y110246D01*
X38240Y110263D01*
X38273Y110288D01*
X38298Y110296D01*
X38307Y110305D01*
X38415Y110396D01*
X38507Y110496D01*
X38540Y110538D01*
X38557Y110571D01*
X38573Y110588D01*
X38581Y110596D01*
X38656Y110730D01*
X38706Y110846D01*
X38723Y110896D01*
X38740Y110938D01*
X38748Y110963D01*
Y110971D01*
X38781Y111129D01*
X38790Y111196D01*
X38798Y111263D01*
Y111313D01*
Y111363D01*
Y111388D01*
Y111396D01*
X38781Y111579D01*
X38765Y111662D01*
X38748Y111729D01*
X38732Y111787D01*
X38715Y111829D01*
X38698Y111862D01*
Y111871D01*
X38623Y112021D01*
X38581Y112087D01*
X38540Y112137D01*
X38507Y112187D01*
X38482Y112221D01*
X38465Y112237D01*
X38457Y112246D01*
X38332Y112354D01*
X38215Y112437D01*
X38173Y112462D01*
X38132Y112487D01*
X38107Y112504D01*
X38098D01*
X37949Y112562D01*
X37882Y112579D01*
X37815Y112595D01*
X37757Y112604D01*
X37715Y112612D01*
X37682D01*
X37532Y112604D01*
X37465Y112595D01*
X37415Y112587D01*
X37365Y112570D01*
X37332Y112562D01*
X37307Y112554D01*
X37299D01*
X37182Y112504D01*
X37091Y112454D01*
X37057Y112429D01*
X37024Y112412D01*
X37016Y112404D01*
X37007Y112396D01*
X36932Y112320D01*
X36882Y112246D01*
X36849Y112196D01*
X36841Y112179D01*
Y112171D01*
X36824Y112129D01*
X36816Y112087D01*
X36807Y112012D01*
Y111954D01*
X36816Y111946D01*
Y111937D01*
X36832Y111896D01*
X36849Y111862D01*
X36907Y111804D01*
X36949Y111762D01*
X36966Y111746D01*
X36974D01*
X37024Y111721D01*
X37082Y111696D01*
X37207Y111662D01*
X37257Y111654D01*
X37299Y111646D01*
X37332Y111637D01*
X37340D01*
X37557Y111621D01*
X37949D01*
X38065Y111637D01*
X38165Y111671D01*
X38265Y111704D01*
X38340Y111746D01*
X38407Y111779D01*
X38457Y111812D01*
X38490Y111837D01*
X38498Y111846D01*
X38532Y111746D01*
X38557Y111646D01*
X38565Y111554D01*
Y111479D01*
Y111421D01*
X38557Y111371D01*
X38548Y111338D01*
Y111329D01*
X38515Y111246D01*
X38473Y111179D01*
X38423Y111121D01*
X38373Y111063D01*
X38332Y111029D01*
X38290Y110996D01*
X38265Y110979D01*
X38257Y110971D01*
X38165Y110929D01*
X38073Y110888D01*
X37982Y110863D01*
X37890Y110838D01*
X37807Y110821D01*
X37749Y110813D01*
X37707Y110804D01*
X37424D01*
X37299Y110821D01*
X37182Y110838D01*
X37082Y110854D01*
X36999Y110871D01*
X36949Y110879D01*
X36941Y110888D01*
X36932D01*
X36791Y110929D01*
X36666Y110979D01*
X36557Y111038D01*
X36457Y111088D01*
X36391Y111138D01*
X36332Y111179D01*
X36299Y111204D01*
X36291Y111213D01*
X36208Y111296D01*
X36141Y111388D01*
X36083Y111471D01*
X36041Y111554D01*
X36008Y111621D01*
X35991Y111671D01*
X35974Y111712D01*
Y111721D01*
X35949Y111829D01*
X35941Y111929D01*
X35933Y112029D01*
X35941Y112121D01*
X35949Y112196D01*
X35958Y112254D01*
X35966Y112287D01*
Y112304D01*
X35999Y112420D01*
X36041Y112521D01*
X36083Y112612D01*
X36132Y112695D01*
X36174Y112770D01*
X36216Y112820D01*
X36241Y112854D01*
X36249Y112862D01*
X36332Y112954D01*
X36424Y113029D01*
X36516Y113103D01*
X36607Y113162D01*
X36682Y113204D01*
X36749Y113245D01*
X36791Y113262D01*
X36807Y113270D01*
X36941Y113329D01*
X37082Y113370D01*
X37215Y113395D01*
X37340Y113420D01*
X37457Y113428D01*
X37540Y113437D01*
X37624D01*
X37782Y113428D01*
D02*
G37*
G36*
X45179Y114711D02*
X45320Y114695D01*
X45445Y114661D01*
X45545Y114620D01*
X45620Y114578D01*
X45679Y114545D01*
X45720Y114520D01*
X45729Y114511D01*
X45812Y114428D01*
X45879Y114336D01*
X45920Y114236D01*
X45954Y114145D01*
X45970Y114061D01*
X45979Y113995D01*
X45987Y113953D01*
Y113945D01*
Y113937D01*
Y109355D01*
X45021D01*
Y114720D01*
X45179Y114711D01*
D02*
G37*
G36*
X33717Y113420D02*
X33800Y113395D01*
X33875Y113370D01*
X33942Y113345D01*
X34000Y113312D01*
X34042Y113287D01*
X34067Y113270D01*
X34075Y113262D01*
X34150Y113195D01*
X34208Y113128D01*
X34267Y113062D01*
X34317Y112987D01*
X34358Y112929D01*
X34383Y112879D01*
X34400Y112845D01*
X34408Y112837D01*
Y113337D01*
X35266D01*
Y109355D01*
X34267D01*
Y110963D01*
Y111079D01*
Y111188D01*
Y111229D01*
Y111263D01*
Y111288D01*
Y111296D01*
Y111429D01*
X34258Y111496D01*
Y111546D01*
Y111596D01*
X34250Y111629D01*
Y111654D01*
Y111662D01*
X34233Y111779D01*
X34208Y111879D01*
X34175Y111962D01*
X34142Y112037D01*
X34108Y112096D01*
X34075Y112146D01*
X34058Y112171D01*
X34050Y112179D01*
X33983Y112246D01*
X33917Y112304D01*
X33850Y112354D01*
X33792Y112396D01*
X33742Y112420D01*
X33700Y112437D01*
X33675Y112454D01*
X33667D01*
X33584Y112479D01*
X33509Y112487D01*
X33442Y112496D01*
X33384Y112487D01*
X33334D01*
X33292Y112479D01*
X33267Y112470D01*
X33259D01*
X33192Y112445D01*
X33134Y112404D01*
X33084Y112362D01*
X33050Y112320D01*
X33025Y112287D01*
X33009Y112254D01*
X32992Y112229D01*
Y112221D01*
X32934Y112271D01*
X32884Y112329D01*
X32851Y112379D01*
X32825Y112437D01*
X32800Y112479D01*
X32792Y112521D01*
X32784Y112545D01*
Y112554D01*
X32776Y112629D01*
Y112704D01*
Y112779D01*
X32792Y112837D01*
X32800Y112887D01*
X32809Y112929D01*
X32825Y112954D01*
Y112962D01*
X32859Y113037D01*
X32901Y113103D01*
X32942Y113162D01*
X32992Y113212D01*
X33034Y113253D01*
X33067Y113287D01*
X33092Y113303D01*
X33100Y113312D01*
X33184Y113362D01*
X33267Y113387D01*
X33350Y113412D01*
X33434Y113420D01*
X33509Y113428D01*
X33625D01*
X33717Y113420D01*
D02*
G37*
G36*
X41380Y111637D02*
X41389Y111446D01*
X41397Y111354D01*
X41405Y111279D01*
X41414Y111213D01*
X41422Y111163D01*
X41430Y111121D01*
Y111113D01*
X41455Y111013D01*
X41480Y110921D01*
X41505Y110846D01*
X41530Y110771D01*
X41555Y110713D01*
X41580Y110671D01*
X41589Y110638D01*
X41597Y110629D01*
X41647Y110555D01*
X41697Y110488D01*
X41747Y110430D01*
X41797Y110380D01*
X41847Y110338D01*
X41880Y110313D01*
X41905Y110296D01*
X41914Y110288D01*
X41989Y110246D01*
X42072Y110213D01*
X42155Y110188D01*
X42230Y110171D01*
X42297Y110163D01*
X42355Y110155D01*
X42405D01*
X42530Y110163D01*
X42647Y110180D01*
X42747Y110205D01*
X42830Y110238D01*
X42897Y110271D01*
X42946Y110296D01*
X42980Y110313D01*
X42988Y110321D01*
X43071Y110388D01*
X43138Y110455D01*
X43205Y110530D01*
X43246Y110596D01*
X43288Y110646D01*
X43313Y110696D01*
X43330Y110730D01*
X43338Y110738D01*
X43371Y110838D01*
X43396Y110929D01*
X43421Y111029D01*
X43430Y111113D01*
X43438Y111179D01*
X43446Y111238D01*
Y111271D01*
Y111288D01*
X43438Y111396D01*
X43430Y111496D01*
X43413Y111588D01*
X43388Y111671D01*
X43363Y111737D01*
X43346Y111787D01*
X43338Y111821D01*
X43330Y111829D01*
X43280Y111921D01*
X43221Y112004D01*
X43171Y112079D01*
X43113Y112137D01*
X43063Y112187D01*
X43021Y112221D01*
X42988Y112246D01*
X42980Y112254D01*
X42888Y112312D01*
X42788Y112354D01*
X42697Y112387D01*
X42597Y112404D01*
X42522Y112420D01*
X42455Y112429D01*
X42397D01*
X42238Y112420D01*
X42164Y112412D01*
X42097Y112396D01*
X42039Y112387D01*
X41997Y112371D01*
X41963Y112362D01*
X41955D01*
X41872Y112329D01*
X41797Y112295D01*
X41739Y112254D01*
X41680Y112212D01*
X41647Y112171D01*
X41614Y112146D01*
X41597Y112121D01*
X41589Y112112D01*
X41547Y112212D01*
X41530Y112320D01*
X41522Y112362D01*
Y112396D01*
Y112420D01*
Y112429D01*
Y112504D01*
X41530Y112579D01*
X41547Y112637D01*
X41564Y112704D01*
X41580Y112745D01*
X41597Y112787D01*
X41605Y112812D01*
X41614Y112820D01*
X41655Y112887D01*
X41705Y112954D01*
X41755Y113012D01*
X41805Y113062D01*
X41855Y113095D01*
X41897Y113128D01*
X41922Y113145D01*
X41930Y113154D01*
X42022Y113204D01*
X42114Y113245D01*
X42213Y113270D01*
X42313Y113295D01*
X42397Y113303D01*
X42463Y113312D01*
X42513Y113320D01*
X42663D01*
X42796Y113303D01*
X42913Y113278D01*
X43021Y113253D01*
X43113Y113228D01*
X43180Y113204D01*
X43221Y113187D01*
X43238Y113179D01*
X43363Y113120D01*
X43471Y113054D01*
X43571Y112987D01*
X43663Y112920D01*
X43738Y112854D01*
X43788Y112804D01*
X43830Y112770D01*
X43838Y112762D01*
X43929Y112662D01*
X44013Y112554D01*
X44088Y112445D01*
X44146Y112346D01*
X44196Y112254D01*
X44229Y112187D01*
X44254Y112137D01*
X44263Y112129D01*
Y112121D01*
X44313Y111979D01*
X44346Y111837D01*
X44379Y111696D01*
X44396Y111571D01*
X44404Y111454D01*
X44412Y111371D01*
Y111338D01*
Y111313D01*
Y111304D01*
Y111296D01*
X44404Y111121D01*
X44388Y110963D01*
X44371Y110821D01*
X44338Y110696D01*
X44313Y110596D01*
X44296Y110521D01*
X44279Y110471D01*
X44271Y110463D01*
Y110455D01*
X44213Y110321D01*
X44146Y110205D01*
X44079Y110096D01*
X44021Y110005D01*
X43963Y109922D01*
X43921Y109871D01*
X43888Y109830D01*
X43879Y109821D01*
X43788Y109730D01*
X43688Y109647D01*
X43596Y109580D01*
X43513Y109522D01*
X43438Y109480D01*
X43380Y109447D01*
X43346Y109430D01*
X43330Y109422D01*
X43213Y109372D01*
X43096Y109338D01*
X42988Y109313D01*
X42888Y109297D01*
X42805Y109280D01*
X42738Y109272D01*
X42555D01*
X42430Y109288D01*
X42313Y109305D01*
X42213Y109322D01*
X42130Y109347D01*
X42064Y109363D01*
X42022Y109372D01*
X42005Y109380D01*
X41880Y109430D01*
X41764Y109497D01*
X41664Y109563D01*
X41564Y109630D01*
X41489Y109688D01*
X41430Y109738D01*
X41397Y109772D01*
X41380Y109780D01*
Y109363D01*
X40414D01*
Y113937D01*
X40422Y114045D01*
X40456Y114145D01*
X40497Y114236D01*
X40539Y114320D01*
X40589Y114378D01*
X40631Y114428D01*
X40664Y114461D01*
X40672Y114470D01*
X40781Y114545D01*
X40889Y114611D01*
X41006Y114653D01*
X41122Y114686D01*
X41222Y114703D01*
X41306Y114711D01*
X41339Y114720D01*
X41380D01*
Y111637D01*
D02*
G37*
G36*
X53151Y114828D02*
X53251Y114811D01*
X53334Y114795D01*
X53401Y114778D01*
X53451Y114761D01*
X53492Y114753D01*
X53501Y114745D01*
X53601Y114703D01*
X53684Y114661D01*
X53767Y114611D01*
X53834Y114570D01*
X53892Y114528D01*
X53942Y114495D01*
X53967Y114470D01*
X53975Y114461D01*
X54109Y114320D01*
X54167Y114245D01*
X54209Y114178D01*
X54250Y114120D01*
X54275Y114070D01*
X54292Y114037D01*
X54300Y114028D01*
X54342Y113937D01*
X54375Y113837D01*
X54392Y113745D01*
X54409Y113662D01*
X54417Y113587D01*
X54425Y113528D01*
Y113495D01*
Y113478D01*
X54417Y113337D01*
X54392Y113204D01*
X54350Y113079D01*
X54309Y112970D01*
X54267Y112879D01*
X54225Y112812D01*
X54200Y112770D01*
X54192Y112754D01*
X54100Y112637D01*
X54009Y112521D01*
X53917Y112420D01*
X53834Y112329D01*
X53759Y112254D01*
X53701Y112196D01*
X53667Y112162D01*
X53650Y112146D01*
X53417Y111946D01*
X53309Y111854D01*
X53217Y111771D01*
X53134Y111704D01*
X53067Y111646D01*
X53034Y111612D01*
X53017Y111604D01*
X52901Y111512D01*
X52801Y111421D01*
X52709Y111338D01*
X52634Y111263D01*
X52576Y111204D01*
X52534Y111154D01*
X52509Y111121D01*
X52501Y111113D01*
X52443Y111029D01*
X52393Y110954D01*
X52359Y110879D01*
X52343Y110821D01*
X52326Y110771D01*
X52318Y110730D01*
Y110705D01*
Y110696D01*
X52326Y110629D01*
X52334Y110571D01*
X52351Y110521D01*
X52376Y110471D01*
X52401Y110438D01*
X52418Y110413D01*
X52426Y110396D01*
X52434Y110388D01*
X52484Y110346D01*
X52534Y110305D01*
X52643Y110255D01*
X52684Y110238D01*
X52726Y110221D01*
X52751Y110213D01*
X52759D01*
X52834Y110205D01*
X52909Y110196D01*
X52984D01*
X53042Y110205D01*
X53101Y110213D01*
X53142Y110221D01*
X53176Y110230D01*
X53184D01*
X53284Y110263D01*
X53367Y110305D01*
X53409Y110330D01*
X53434Y110338D01*
X53451Y110355D01*
X53459D01*
X53559Y110430D01*
X53650Y110496D01*
X53684Y110521D01*
X53709Y110546D01*
X53725Y110555D01*
X53734Y110563D01*
X53825Y110654D01*
X53900Y110738D01*
X53925Y110771D01*
X53950Y110796D01*
X53959Y110813D01*
X53967Y110821D01*
X54042Y110929D01*
X54100Y111013D01*
X54117Y111054D01*
X54134Y111079D01*
X54150Y111096D01*
Y111104D01*
X54950Y110513D01*
X54892Y110405D01*
X54833Y110305D01*
X54775Y110213D01*
X54717Y110138D01*
X54667Y110071D01*
X54625Y110021D01*
X54600Y109988D01*
X54592Y109980D01*
X54425Y109821D01*
X54342Y109747D01*
X54267Y109688D01*
X54200Y109638D01*
X54150Y109605D01*
X54117Y109580D01*
X54109Y109572D01*
X53917Y109463D01*
X53817Y109413D01*
X53734Y109380D01*
X53667Y109355D01*
X53609Y109330D01*
X53575Y109322D01*
X53559Y109313D01*
X53442Y109280D01*
X53334Y109255D01*
X53234Y109238D01*
X53142Y109230D01*
X53067Y109222D01*
X53001Y109213D01*
X52951D01*
X52767Y109222D01*
X52593Y109247D01*
X52443Y109280D01*
X52318Y109313D01*
X52218Y109347D01*
X52143Y109380D01*
X52093Y109405D01*
X52076Y109413D01*
X51951Y109497D01*
X51843Y109580D01*
X51743Y109663D01*
X51668Y109747D01*
X51610Y109821D01*
X51560Y109880D01*
X51535Y109913D01*
X51526Y109930D01*
X51460Y110055D01*
X51410Y110171D01*
X51368Y110288D01*
X51335Y110396D01*
X51318Y110488D01*
X51310Y110555D01*
X51301Y110605D01*
Y110621D01*
Y110763D01*
X51310Y110896D01*
X51335Y111021D01*
X51360Y111129D01*
X51385Y111221D01*
X51410Y111296D01*
X51426Y111338D01*
X51435Y111354D01*
X51485Y111454D01*
X51543Y111546D01*
X51610Y111637D01*
X51668Y111721D01*
X51726Y111787D01*
X51776Y111837D01*
X51810Y111871D01*
X51818Y111879D01*
X52009Y112071D01*
X52101Y112154D01*
X52193Y112237D01*
X52259Y112295D01*
X52318Y112346D01*
X52351Y112379D01*
X52368Y112387D01*
X52576Y112562D01*
X52668Y112645D01*
X52751Y112712D01*
X52817Y112770D01*
X52868Y112820D01*
X52909Y112845D01*
X52917Y112854D01*
X53009Y112937D01*
X53092Y113012D01*
X53167Y113079D01*
X53226Y113137D01*
X53276Y113187D01*
X53309Y113228D01*
X53326Y113253D01*
X53334Y113262D01*
X53367Y113312D01*
X53392Y113362D01*
X53409Y113403D01*
Y113445D01*
X53417Y113470D01*
X53409Y113495D01*
Y113512D01*
Y113520D01*
X53367Y113612D01*
X53317Y113687D01*
X53276Y113728D01*
X53267Y113745D01*
X53259D01*
X53159Y113812D01*
X53059Y113853D01*
X53017Y113862D01*
X52984Y113870D01*
X52959Y113878D01*
X52951D01*
X52876Y113887D01*
X52809Y113895D01*
X52743D01*
X52684Y113887D01*
X52634Y113878D01*
X52593Y113870D01*
X52568Y113862D01*
X52559D01*
X52484Y113837D01*
X52409Y113812D01*
X52334Y113770D01*
X52276Y113737D01*
X52226Y113703D01*
X52184Y113678D01*
X52160Y113662D01*
X52151Y113653D01*
X52076Y113595D01*
X52009Y113520D01*
X51951Y113453D01*
X51901Y113378D01*
X51868Y113320D01*
X51835Y113270D01*
X51818Y113237D01*
X51810Y113220D01*
X51743Y113270D01*
X51685Y113320D01*
X51635Y113362D01*
X51593Y113403D01*
X51568Y113445D01*
X51543Y113470D01*
X51526Y113487D01*
Y113495D01*
X51493Y113553D01*
X51476Y113612D01*
X51443Y113720D01*
Y113762D01*
X51435Y113795D01*
Y113812D01*
Y113820D01*
X51451Y113945D01*
X51476Y114045D01*
X51493Y114086D01*
X51501Y114120D01*
X51518Y114137D01*
Y114145D01*
X51585Y114261D01*
X51651Y114361D01*
X51685Y114395D01*
X51710Y114420D01*
X51726Y114436D01*
X51735Y114445D01*
X51818Y114511D01*
X51901Y114570D01*
X51985Y114620D01*
X52068Y114661D01*
X52143Y114695D01*
X52201Y114720D01*
X52243Y114728D01*
X52259Y114736D01*
X52376Y114770D01*
X52501Y114803D01*
X52618Y114820D01*
X52718Y114828D01*
X52809Y114836D01*
X52876Y114845D01*
X53051D01*
X53151Y114828D01*
D02*
G37*
G36*
X48511Y108047D02*
X48652Y108031D01*
X48777Y107997D01*
X48877Y107956D01*
X48952Y107914D01*
X49011Y107881D01*
X49052Y107856D01*
X49061Y107847D01*
X49144Y107764D01*
X49211Y107672D01*
X49252Y107572D01*
X49286Y107481D01*
X49302Y107397D01*
X49311Y107331D01*
X49319Y107289D01*
Y107281D01*
Y107273D01*
Y102691D01*
X48353D01*
Y105582D01*
X48319Y105507D01*
X48278Y105448D01*
X48244Y105398D01*
X48228Y105390D01*
Y105382D01*
X48153Y105323D01*
X48094Y105290D01*
X48061Y105282D01*
X48044Y105273D01*
X48036Y105348D01*
X48019Y105423D01*
X48003Y105482D01*
X47969Y105532D01*
X47945Y105573D01*
X47928Y105606D01*
X47911Y105623D01*
X47903Y105631D01*
X47844Y105682D01*
X47778Y105715D01*
X47711Y105740D01*
X47645Y105756D01*
X47586Y105765D01*
X47536Y105773D01*
X47495D01*
X47420Y105765D01*
X47353Y105756D01*
X47295Y105731D01*
X47236Y105715D01*
X47195Y105690D01*
X47161Y105665D01*
X47145Y105657D01*
X47137Y105648D01*
X47078Y105598D01*
X47028Y105540D01*
X46995Y105482D01*
X46962Y105423D01*
X46937Y105373D01*
X46920Y105332D01*
X46911Y105298D01*
Y105290D01*
X46903Y105248D01*
X46895Y105207D01*
X46878Y105115D01*
Y105073D01*
X46870Y105040D01*
Y105015D01*
Y105007D01*
X46862Y104857D01*
X46853Y104782D01*
Y104715D01*
Y104657D01*
Y104607D01*
Y104574D01*
Y104565D01*
X46845Y104382D01*
Y104290D01*
Y104215D01*
Y104140D01*
Y104090D01*
Y104057D01*
Y104041D01*
Y103841D01*
Y103749D01*
Y103666D01*
Y103599D01*
Y103541D01*
Y103507D01*
Y103499D01*
Y103316D01*
Y103241D01*
Y103166D01*
Y103108D01*
Y103066D01*
Y103033D01*
Y103024D01*
Y102949D01*
Y102883D01*
Y102824D01*
Y102774D01*
Y102741D01*
Y102716D01*
Y102699D01*
Y102691D01*
X45887D01*
Y105240D01*
X45904Y105473D01*
X45937Y105673D01*
X45995Y105848D01*
X46054Y105998D01*
X46120Y106106D01*
X46178Y106190D01*
X46212Y106240D01*
X46229Y106256D01*
X46320Y106340D01*
X46403Y106406D01*
X46495Y106465D01*
X46570Y106506D01*
X46637Y106539D01*
X46687Y106564D01*
X46720Y106581D01*
X46737D01*
X46837Y106614D01*
X46937Y106631D01*
X47036Y106648D01*
X47120Y106656D01*
X47186Y106665D01*
X47295D01*
X47403Y106656D01*
X47495Y106640D01*
X47536Y106631D01*
X47570Y106623D01*
X47586Y106614D01*
X47595D01*
X47711Y106581D01*
X47811Y106548D01*
X47844Y106531D01*
X47878Y106515D01*
X47894Y106506D01*
X47903D01*
X48003Y106456D01*
X48086Y106406D01*
X48119Y106381D01*
X48144Y106365D01*
X48161Y106356D01*
X48169Y106348D01*
X48253Y106273D01*
X48311Y106198D01*
X48328Y106165D01*
X48344Y106140D01*
X48353Y106123D01*
Y108056D01*
X48511Y108047D01*
D02*
G37*
G36*
X26770Y106748D02*
X26895Y106723D01*
X27003Y106698D01*
X27095Y106673D01*
X27169Y106656D01*
X27211Y106640D01*
X27228Y106631D01*
X27353Y106573D01*
X27469Y106515D01*
X27569Y106448D01*
X27661Y106390D01*
X27736Y106331D01*
X27794Y106281D01*
X27828Y106248D01*
X27844Y106240D01*
X27944Y106140D01*
X28027Y106031D01*
X28102Y105923D01*
X28161Y105823D01*
X28211Y105731D01*
X28244Y105665D01*
X28269Y105615D01*
X28277Y105606D01*
Y105598D01*
X28327Y105457D01*
X28369Y105307D01*
X28394Y105173D01*
X28419Y105040D01*
X28427Y104932D01*
X28436Y104840D01*
Y104807D01*
Y104782D01*
Y104774D01*
Y104765D01*
X28427Y104590D01*
X28411Y104432D01*
X28394Y104282D01*
X28361Y104157D01*
X28336Y104057D01*
X28319Y103974D01*
X28302Y103924D01*
X28294Y103916D01*
Y103907D01*
X28236Y103766D01*
X28169Y103641D01*
X28102Y103532D01*
X28036Y103432D01*
X27977Y103357D01*
X27936Y103299D01*
X27902Y103266D01*
X27894Y103249D01*
X27794Y103157D01*
X27703Y103074D01*
X27603Y102999D01*
X27511Y102941D01*
X27436Y102891D01*
X27378Y102858D01*
X27336Y102841D01*
X27319Y102833D01*
X27194Y102783D01*
X27070Y102749D01*
X26961Y102724D01*
X26853Y102708D01*
X26770Y102691D01*
X26703Y102683D01*
X26511D01*
X26386Y102699D01*
X26270Y102716D01*
X26170Y102733D01*
X26078Y102758D01*
X26012Y102774D01*
X25970Y102783D01*
X25953Y102791D01*
X25828Y102841D01*
X25712Y102908D01*
X25603Y102974D01*
X25512Y103049D01*
X25429Y103108D01*
X25370Y103157D01*
X25337Y103191D01*
X25320Y103208D01*
X25328Y103049D01*
X25337Y102983D01*
X25345Y102916D01*
X25354Y102866D01*
X25362Y102824D01*
X25370Y102799D01*
Y102791D01*
X25420Y102658D01*
X25445Y102599D01*
X25479Y102541D01*
X25504Y102499D01*
X25528Y102466D01*
X25537Y102450D01*
X25545Y102441D01*
X25595Y102383D01*
X25653Y102333D01*
X25770Y102250D01*
X25820Y102225D01*
X25862Y102200D01*
X25887Y102191D01*
X25895Y102183D01*
X25978Y102150D01*
X26078Y102125D01*
X26170Y102100D01*
X26261Y102091D01*
X26345Y102075D01*
X26411D01*
X26453Y102066D01*
X26470D01*
X26611Y102075D01*
X26686Y102083D01*
X26753Y102091D01*
X26803Y102100D01*
X26845Y102108D01*
X26878Y102116D01*
X26886D01*
X27053Y102150D01*
X27128Y102175D01*
X27194Y102191D01*
X27253Y102216D01*
X27294Y102225D01*
X27328Y102241D01*
X27336D01*
X27494Y102299D01*
X27561Y102333D01*
X27628Y102366D01*
X27678Y102391D01*
X27719Y102416D01*
X27744Y102425D01*
X27753Y102433D01*
X27878Y102524D01*
X27936Y102566D01*
X27977Y102608D01*
X28011Y102641D01*
X28036Y102666D01*
X28052Y102683D01*
X28061Y102691D01*
X28094Y102549D01*
X28111Y102416D01*
Y102299D01*
Y102200D01*
X28094Y102116D01*
X28086Y102058D01*
X28069Y102025D01*
Y102008D01*
X28019Y101908D01*
X27969Y101808D01*
X27911Y101733D01*
X27852Y101658D01*
X27794Y101608D01*
X27753Y101567D01*
X27719Y101541D01*
X27711Y101533D01*
X27611Y101467D01*
X27511Y101408D01*
X27411Y101358D01*
X27311Y101317D01*
X27228Y101292D01*
X27161Y101267D01*
X27119Y101258D01*
X27103Y101250D01*
X26970Y101217D01*
X26836Y101192D01*
X26711Y101175D01*
X26595Y101167D01*
X26503Y101158D01*
X26428Y101150D01*
X26361D01*
X26178Y101158D01*
X26012Y101175D01*
X25862Y101192D01*
X25737Y101225D01*
X25628Y101250D01*
X25553Y101267D01*
X25504Y101283D01*
X25487Y101292D01*
X25345Y101350D01*
X25229Y101417D01*
X25112Y101483D01*
X25020Y101541D01*
X24945Y101600D01*
X24895Y101650D01*
X24854Y101683D01*
X24845Y101691D01*
X24754Y101791D01*
X24679Y101900D01*
X24604Y102008D01*
X24554Y102108D01*
X24512Y102191D01*
X24479Y102266D01*
X24462Y102308D01*
X24454Y102324D01*
X24412Y102466D01*
X24379Y102608D01*
X24354Y102741D01*
X24337Y102866D01*
X24329Y102974D01*
X24321Y103058D01*
Y103091D01*
Y103116D01*
Y103124D01*
Y103132D01*
Y106656D01*
X25320D01*
Y106231D01*
Y105024D01*
X25328Y104832D01*
X25337Y104740D01*
X25345Y104665D01*
X25354Y104599D01*
X25362Y104540D01*
X25370Y104507D01*
Y104499D01*
X25395Y104407D01*
X25420Y104315D01*
X25445Y104240D01*
X25479Y104165D01*
X25504Y104115D01*
X25528Y104066D01*
X25537Y104041D01*
X25545Y104032D01*
X25645Y103899D01*
X25695Y103841D01*
X25745Y103799D01*
X25795Y103757D01*
X25828Y103732D01*
X25853Y103716D01*
X25862Y103707D01*
X25937Y103666D01*
X26028Y103641D01*
X26112Y103616D01*
X26186Y103607D01*
X26261Y103599D01*
X26320Y103591D01*
X26370D01*
X26495Y103599D01*
X26611Y103616D01*
X26720Y103641D01*
X26803Y103674D01*
X26878Y103707D01*
X26928Y103732D01*
X26961Y103749D01*
X26970Y103757D01*
X27053Y103824D01*
X27128Y103891D01*
X27194Y103965D01*
X27244Y104032D01*
X27286Y104082D01*
X27311Y104132D01*
X27328Y104165D01*
X27336Y104174D01*
X27378Y104265D01*
X27403Y104365D01*
X27428Y104457D01*
X27436Y104540D01*
X27444Y104607D01*
X27453Y104665D01*
Y104699D01*
Y104715D01*
X27444Y104824D01*
X27428Y104923D01*
X27403Y105015D01*
X27386Y105098D01*
X27361Y105165D01*
X27336Y105215D01*
X27328Y105248D01*
X27319Y105257D01*
X27269Y105348D01*
X27211Y105432D01*
X27153Y105498D01*
X27095Y105557D01*
X27044Y105606D01*
X27003Y105640D01*
X26970Y105665D01*
X26961Y105673D01*
X26870Y105731D01*
X26770Y105773D01*
X26670Y105807D01*
X26578Y105823D01*
X26495Y105840D01*
X26428Y105848D01*
X26287D01*
X26220Y105840D01*
X26162Y105832D01*
X26145D01*
X26053Y105815D01*
X25978Y105798D01*
X25928Y105781D01*
X25920Y105773D01*
X25912D01*
X25837Y105740D01*
X25770Y105715D01*
X25728Y105682D01*
X25712Y105673D01*
X25645Y105623D01*
X25587Y105573D01*
X25553Y105532D01*
X25537Y105523D01*
Y105515D01*
X25495Y105623D01*
X25479Y105731D01*
Y105773D01*
Y105815D01*
Y105840D01*
Y105848D01*
X25487Y105923D01*
X25495Y105998D01*
X25512Y106065D01*
X25528Y106123D01*
X25553Y106173D01*
X25570Y106215D01*
X25578Y106240D01*
X25587Y106248D01*
X25628Y106323D01*
X25678Y106390D01*
X25737Y106448D01*
X25787Y106498D01*
X25837Y106539D01*
X25878Y106573D01*
X25903Y106589D01*
X25912Y106598D01*
X25995Y106648D01*
X26095Y106690D01*
X26195Y106714D01*
X26287Y106739D01*
X26370Y106748D01*
X26436Y106756D01*
X26478Y106764D01*
X26636D01*
X26770Y106748D01*
D02*
G37*
G36*
X52251Y108131D02*
X52384Y108122D01*
X52509Y108106D01*
X52626Y108097D01*
X52718Y108081D01*
X52793Y108064D01*
X52834Y108056D01*
X52851D01*
X52984Y108031D01*
X53109Y107989D01*
X53217Y107956D01*
X53326Y107922D01*
X53409Y107881D01*
X53467Y107856D01*
X53509Y107839D01*
X53526Y107831D01*
X53642Y107764D01*
X53750Y107697D01*
X53850Y107631D01*
X53942Y107564D01*
X54017Y107506D01*
X54067Y107456D01*
X54100Y107422D01*
X54117Y107414D01*
X54217Y107314D01*
X54309Y107214D01*
X54392Y107106D01*
X54458Y107006D01*
X54517Y106914D01*
X54567Y106848D01*
X54592Y106798D01*
X54600Y106789D01*
Y106781D01*
X54675Y106631D01*
X54742Y106481D01*
X54800Y106331D01*
X54842Y106198D01*
X54867Y106081D01*
X54892Y105998D01*
X54900Y105965D01*
Y105940D01*
X54908Y105923D01*
Y105915D01*
X54933Y105740D01*
X54950Y105573D01*
Y105423D01*
Y105282D01*
Y105165D01*
X54942Y105073D01*
Y105040D01*
X54933Y105015D01*
Y104999D01*
Y104990D01*
X54908Y104815D01*
X54867Y104657D01*
X54825Y104499D01*
X54783Y104365D01*
X54750Y104249D01*
X54717Y104165D01*
X54700Y104132D01*
X54692Y104107D01*
X54683Y104099D01*
Y104090D01*
X54600Y103932D01*
X54517Y103791D01*
X54425Y103657D01*
X54342Y103541D01*
X54267Y103449D01*
X54209Y103374D01*
X54167Y103332D01*
X54150Y103316D01*
X54017Y103199D01*
X53875Y103091D01*
X53742Y102999D01*
X53617Y102924D01*
X53501Y102866D01*
X53417Y102816D01*
X53376Y102808D01*
X53351Y102791D01*
X53342Y102783D01*
X53334D01*
X53151Y102716D01*
X52959Y102674D01*
X52776Y102641D01*
X52601Y102616D01*
X52451Y102599D01*
X52393D01*
X52334Y102591D01*
X52109D01*
X51985Y102599D01*
X51876Y102608D01*
X51785Y102624D01*
X51701Y102633D01*
X51643Y102641D01*
X51610Y102649D01*
X51593D01*
X51485Y102674D01*
X51376Y102699D01*
X51285Y102733D01*
X51201Y102766D01*
X51135Y102791D01*
X51077Y102816D01*
X51043Y102824D01*
X51035Y102833D01*
X50843Y102933D01*
X50760Y102991D01*
X50677Y103041D01*
X50618Y103083D01*
X50568Y103116D01*
X50535Y103141D01*
X50527Y103149D01*
X50344Y103299D01*
X50252Y103382D01*
X50177Y103449D01*
X50110Y103516D01*
X50060Y103566D01*
X50027Y103599D01*
X50019Y103607D01*
X50677Y104324D01*
X50835Y104165D01*
X50977Y104041D01*
X51110Y103941D01*
X51227Y103857D01*
X51318Y103799D01*
X51393Y103757D01*
X51435Y103732D01*
X51451Y103724D01*
X51601Y103666D01*
X51751Y103616D01*
X51893Y103591D01*
X52026Y103566D01*
X52135Y103557D01*
X52226Y103549D01*
X52301D01*
X52459Y103566D01*
X52618Y103591D01*
X52751Y103632D01*
X52876Y103674D01*
X52976Y103716D01*
X53051Y103749D01*
X53101Y103774D01*
X53109Y103782D01*
X53117D01*
X53251Y103874D01*
X53376Y103974D01*
X53476Y104074D01*
X53567Y104174D01*
X53642Y104257D01*
X53701Y104332D01*
X53734Y104382D01*
X53742Y104390D01*
Y104399D01*
X53825Y104557D01*
X53884Y104724D01*
X53925Y104890D01*
X53950Y105040D01*
X53967Y105182D01*
X53975Y105240D01*
X53984Y105282D01*
Y105323D01*
Y105357D01*
Y105373D01*
Y105382D01*
X53975Y105498D01*
X53967Y105606D01*
X53950Y105707D01*
X53934Y105790D01*
X53917Y105865D01*
X53909Y105923D01*
X53892Y105956D01*
Y105973D01*
X53850Y106073D01*
X53809Y106173D01*
X53767Y106265D01*
X53725Y106340D01*
X53684Y106398D01*
X53650Y106448D01*
X53634Y106481D01*
X53626Y106490D01*
X53559Y106573D01*
X53484Y106648D01*
X53417Y106723D01*
X53351Y106781D01*
X53292Y106823D01*
X53242Y106856D01*
X53209Y106881D01*
X53201Y106889D01*
X53101Y106948D01*
X53009Y106998D01*
X52917Y107039D01*
X52826Y107073D01*
X52751Y107089D01*
X52693Y107106D01*
X52659Y107123D01*
X52643D01*
X52418Y107156D01*
X52318D01*
X52218Y107164D01*
X52135D01*
X52076Y107156D01*
X52018D01*
X51893Y107139D01*
X51776Y107123D01*
X51676Y107098D01*
X51576Y107073D01*
X51501Y107056D01*
X51443Y107031D01*
X51410Y107023D01*
X51393Y107014D01*
X51285Y106973D01*
X51185Y106923D01*
X51093Y106873D01*
X51018Y106823D01*
X50952Y106773D01*
X50910Y106739D01*
X50877Y106714D01*
X50868Y106706D01*
X50785Y106631D01*
X50718Y106548D01*
X50660Y106465D01*
X50610Y106390D01*
X50577Y106323D01*
X50543Y106273D01*
X50535Y106240D01*
X50527Y106223D01*
X50435Y106340D01*
X50360Y106448D01*
X50310Y106548D01*
X50260Y106640D01*
X50235Y106706D01*
X50219Y106764D01*
X50202Y106798D01*
Y106806D01*
X50185Y106906D01*
X50177Y106998D01*
Y107073D01*
X50185Y107148D01*
X50202Y107206D01*
X50210Y107248D01*
X50227Y107281D01*
Y107289D01*
X50260Y107364D01*
X50310Y107439D01*
X50352Y107506D01*
X50402Y107556D01*
X50452Y107606D01*
X50485Y107639D01*
X50510Y107656D01*
X50518Y107664D01*
X50677Y107772D01*
X50752Y107822D01*
X50827Y107864D01*
X50893Y107889D01*
X50943Y107914D01*
X50977Y107922D01*
X50985Y107931D01*
X51185Y107997D01*
X51285Y108031D01*
X51368Y108047D01*
X51443Y108064D01*
X51501Y108081D01*
X51535Y108089D01*
X51551D01*
X51760Y108122D01*
X51860Y108131D01*
X51943D01*
X52009Y108139D01*
X52109D01*
X52251Y108131D01*
D02*
G37*
G36*
X43613Y106748D02*
X43738Y106723D01*
X43846Y106698D01*
X43938Y106673D01*
X44013Y106648D01*
X44054Y106631D01*
X44071Y106623D01*
X44196Y106564D01*
X44313Y106490D01*
X44412Y106423D01*
X44504Y106356D01*
X44579Y106290D01*
X44638Y106240D01*
X44671Y106206D01*
X44687Y106198D01*
X44787Y106090D01*
X44871Y105981D01*
X44946Y105865D01*
X45004Y105765D01*
X45054Y105673D01*
X45087Y105598D01*
X45112Y105548D01*
X45121Y105540D01*
Y105532D01*
X45171Y105382D01*
X45212Y105232D01*
X45237Y105090D01*
X45262Y104957D01*
X45270Y104849D01*
X45279Y104757D01*
Y104724D01*
Y104699D01*
Y104690D01*
Y104682D01*
X45270Y104507D01*
X45254Y104340D01*
X45237Y104199D01*
X45204Y104066D01*
X45179Y103965D01*
X45162Y103882D01*
X45146Y103832D01*
X45137Y103824D01*
Y103816D01*
X45079Y103682D01*
X45012Y103557D01*
X44946Y103449D01*
X44879Y103349D01*
X44821Y103274D01*
X44779Y103216D01*
X44746Y103182D01*
X44737Y103166D01*
X44638Y103074D01*
X44546Y102991D01*
X44446Y102916D01*
X44354Y102866D01*
X44279Y102816D01*
X44221Y102783D01*
X44179Y102766D01*
X44163Y102758D01*
X44038Y102708D01*
X43913Y102674D01*
X43804Y102649D01*
X43696Y102633D01*
X43613Y102616D01*
X43546Y102608D01*
X43355D01*
X43230Y102616D01*
X43113Y102633D01*
X43013Y102658D01*
X42922Y102674D01*
X42855Y102699D01*
X42813Y102708D01*
X42796Y102716D01*
X42672Y102766D01*
X42555Y102833D01*
X42447Y102899D01*
X42355Y102966D01*
X42272Y103024D01*
X42213Y103074D01*
X42180Y103116D01*
X42164Y103124D01*
Y102691D01*
X41164D01*
Y106665D01*
X42164D01*
Y106240D01*
Y105032D01*
X42172Y104832D01*
X42180Y104740D01*
X42188Y104665D01*
X42197Y104590D01*
X42205Y104540D01*
X42213Y104507D01*
Y104490D01*
X42238Y104390D01*
X42263Y104299D01*
X42288Y104215D01*
X42322Y104140D01*
X42347Y104082D01*
X42372Y104041D01*
X42380Y104007D01*
X42388Y103999D01*
X42438Y103924D01*
X42488Y103849D01*
X42538Y103791D01*
X42588Y103741D01*
X42638Y103699D01*
X42672Y103666D01*
X42697Y103649D01*
X42705Y103641D01*
X42780Y103599D01*
X42871Y103566D01*
X42955Y103541D01*
X43030Y103524D01*
X43105Y103516D01*
X43163Y103507D01*
X43213D01*
X43338Y103516D01*
X43455Y103532D01*
X43563Y103557D01*
X43646Y103591D01*
X43721Y103624D01*
X43771Y103649D01*
X43804Y103666D01*
X43813Y103674D01*
X43896Y103741D01*
X43971Y103816D01*
X44038Y103891D01*
X44088Y103957D01*
X44129Y104016D01*
X44154Y104066D01*
X44171Y104099D01*
X44179Y104107D01*
X44221Y104207D01*
X44246Y104307D01*
X44271Y104407D01*
X44279Y104490D01*
X44288Y104565D01*
X44296Y104624D01*
Y104657D01*
Y104674D01*
X44288Y104782D01*
X44271Y104890D01*
X44246Y104982D01*
X44229Y105065D01*
X44204Y105132D01*
X44179Y105190D01*
X44171Y105223D01*
X44163Y105232D01*
X44113Y105323D01*
X44054Y105415D01*
X43996Y105490D01*
X43938Y105557D01*
X43888Y105606D01*
X43846Y105640D01*
X43813Y105665D01*
X43804Y105673D01*
X43713Y105731D01*
X43613Y105773D01*
X43513Y105807D01*
X43421Y105823D01*
X43338Y105840D01*
X43271Y105848D01*
X43213D01*
X43046Y105840D01*
X42972Y105832D01*
X42897Y105815D01*
X42838Y105807D01*
X42796Y105790D01*
X42763Y105781D01*
X42755D01*
X42672Y105748D01*
X42597Y105715D01*
X42530Y105665D01*
X42480Y105623D01*
X42438Y105582D01*
X42405Y105548D01*
X42388Y105523D01*
X42380Y105515D01*
X42338Y105615D01*
X42322Y105723D01*
Y105773D01*
Y105807D01*
Y105832D01*
Y105840D01*
X42330Y105915D01*
X42338Y105990D01*
X42355Y106065D01*
X42372Y106123D01*
X42397Y106173D01*
X42413Y106215D01*
X42422Y106240D01*
X42430Y106248D01*
X42472Y106323D01*
X42522Y106390D01*
X42580Y106448D01*
X42630Y106498D01*
X42680Y106539D01*
X42722Y106573D01*
X42747Y106589D01*
X42755Y106598D01*
X42838Y106648D01*
X42938Y106690D01*
X43038Y106714D01*
X43130Y106739D01*
X43213Y106748D01*
X43280Y106756D01*
X43321Y106764D01*
X43480D01*
X43613Y106748D01*
D02*
G37*
G36*
X35075Y106764D02*
X35233Y106748D01*
X35375Y106731D01*
X35500Y106706D01*
X35608Y106673D01*
X35683Y106656D01*
X35716Y106648D01*
X35741Y106640D01*
X35749Y106631D01*
X35758D01*
X35908Y106573D01*
X36041Y106498D01*
X36166Y106423D01*
X36266Y106348D01*
X36357Y106273D01*
X36416Y106215D01*
X36457Y106181D01*
X36474Y106165D01*
X36574Y106056D01*
X36657Y105940D01*
X36732Y105823D01*
X36791Y105715D01*
X36841Y105623D01*
X36874Y105557D01*
X36891Y105507D01*
X36899Y105498D01*
Y105490D01*
X36949Y105348D01*
X36982Y105215D01*
X37007Y105082D01*
X37024Y104965D01*
X37040Y104865D01*
X37049Y104782D01*
Y104732D01*
Y104724D01*
Y104715D01*
Y104574D01*
X37032Y104432D01*
X37016Y104299D01*
X36990Y104182D01*
X36974Y104082D01*
X36949Y104007D01*
X36941Y103957D01*
X36932Y103949D01*
Y103941D01*
X36882Y103807D01*
X36816Y103674D01*
X36757Y103566D01*
X36691Y103466D01*
X36641Y103382D01*
X36591Y103316D01*
X36557Y103282D01*
X36549Y103266D01*
X36449Y103157D01*
X36341Y103066D01*
X36233Y102983D01*
X36132Y102916D01*
X36041Y102858D01*
X35974Y102816D01*
X35924Y102791D01*
X35908Y102783D01*
X35758Y102724D01*
X35599Y102683D01*
X35449Y102649D01*
X35308Y102633D01*
X35183Y102616D01*
X35133D01*
X35083Y102608D01*
X35000D01*
X34800Y102616D01*
X34617Y102641D01*
X34450Y102674D01*
X34308Y102708D01*
X34192Y102741D01*
X34100Y102774D01*
X34067Y102791D01*
X34042Y102799D01*
X34033Y102808D01*
X34025D01*
X33867Y102891D01*
X33725Y102999D01*
X33600Y103108D01*
X33484Y103216D01*
X33400Y103316D01*
X33334Y103399D01*
X33309Y103432D01*
X33292Y103457D01*
X33275Y103466D01*
Y103474D01*
X34083Y103866D01*
X34175Y103782D01*
X34267Y103716D01*
X34358Y103657D01*
X34442Y103607D01*
X34517Y103574D01*
X34575Y103549D01*
X34608Y103541D01*
X34625Y103532D01*
X34741Y103507D01*
X34850Y103491D01*
X34950Y103482D01*
X35041Y103474D01*
X35116Y103482D01*
X35175D01*
X35208Y103491D01*
X35225D01*
X35375Y103532D01*
X35433Y103549D01*
X35491Y103582D01*
X35533Y103599D01*
X35566Y103624D01*
X35591Y103632D01*
X35599Y103641D01*
X35708Y103732D01*
X35799Y103832D01*
X35833Y103874D01*
X35849Y103907D01*
X35866Y103924D01*
X35874Y103932D01*
X35949Y104066D01*
X35999Y104182D01*
X36016Y104232D01*
X36033Y104274D01*
X36041Y104299D01*
Y104307D01*
X36074Y104465D01*
X36083Y104532D01*
X36091Y104599D01*
Y104649D01*
Y104699D01*
Y104724D01*
Y104732D01*
X36074Y104915D01*
X36058Y104999D01*
X36041Y105065D01*
X36024Y105123D01*
X36008Y105165D01*
X35991Y105198D01*
Y105207D01*
X35916Y105357D01*
X35874Y105423D01*
X35833Y105473D01*
X35799Y105523D01*
X35774Y105557D01*
X35758Y105573D01*
X35749Y105582D01*
X35624Y105690D01*
X35508Y105773D01*
X35466Y105798D01*
X35425Y105823D01*
X35399Y105840D01*
X35391D01*
X35241Y105898D01*
X35175Y105915D01*
X35108Y105931D01*
X35050Y105940D01*
X35008Y105948D01*
X34975D01*
X34825Y105940D01*
X34758Y105931D01*
X34708Y105923D01*
X34658Y105906D01*
X34625Y105898D01*
X34600Y105890D01*
X34591D01*
X34475Y105840D01*
X34383Y105790D01*
X34350Y105765D01*
X34317Y105748D01*
X34308Y105740D01*
X34300Y105731D01*
X34225Y105657D01*
X34175Y105582D01*
X34142Y105532D01*
X34133Y105515D01*
Y105507D01*
X34117Y105465D01*
X34108Y105423D01*
X34100Y105348D01*
Y105290D01*
X34108Y105282D01*
Y105273D01*
X34125Y105232D01*
X34142Y105198D01*
X34200Y105140D01*
X34242Y105098D01*
X34258Y105082D01*
X34267D01*
X34317Y105057D01*
X34375Y105032D01*
X34500Y104999D01*
X34550Y104990D01*
X34591Y104982D01*
X34625Y104973D01*
X34633D01*
X34850Y104957D01*
X35241D01*
X35358Y104973D01*
X35458Y105007D01*
X35558Y105040D01*
X35633Y105082D01*
X35699Y105115D01*
X35749Y105148D01*
X35783Y105173D01*
X35791Y105182D01*
X35824Y105082D01*
X35849Y104982D01*
X35858Y104890D01*
Y104815D01*
Y104757D01*
X35849Y104707D01*
X35841Y104674D01*
Y104665D01*
X35808Y104582D01*
X35766Y104515D01*
X35716Y104457D01*
X35666Y104399D01*
X35624Y104365D01*
X35583Y104332D01*
X35558Y104315D01*
X35549Y104307D01*
X35458Y104265D01*
X35366Y104224D01*
X35274Y104199D01*
X35183Y104174D01*
X35100Y104157D01*
X35041Y104149D01*
X35000Y104140D01*
X34716D01*
X34591Y104157D01*
X34475Y104174D01*
X34375Y104191D01*
X34292Y104207D01*
X34242Y104215D01*
X34233Y104224D01*
X34225D01*
X34083Y104265D01*
X33958Y104315D01*
X33850Y104374D01*
X33750Y104424D01*
X33683Y104474D01*
X33625Y104515D01*
X33592Y104540D01*
X33584Y104549D01*
X33500Y104632D01*
X33434Y104724D01*
X33375Y104807D01*
X33334Y104890D01*
X33300Y104957D01*
X33284Y105007D01*
X33267Y105048D01*
Y105057D01*
X33242Y105165D01*
X33234Y105265D01*
X33225Y105365D01*
X33234Y105457D01*
X33242Y105532D01*
X33250Y105590D01*
X33259Y105623D01*
Y105640D01*
X33292Y105756D01*
X33334Y105856D01*
X33375Y105948D01*
X33425Y106031D01*
X33467Y106106D01*
X33509Y106156D01*
X33534Y106190D01*
X33542Y106198D01*
X33625Y106290D01*
X33717Y106365D01*
X33808Y106440D01*
X33900Y106498D01*
X33975Y106539D01*
X34042Y106581D01*
X34083Y106598D01*
X34100Y106606D01*
X34233Y106665D01*
X34375Y106706D01*
X34508Y106731D01*
X34633Y106756D01*
X34750Y106764D01*
X34833Y106773D01*
X34916D01*
X35075Y106764D01*
D02*
G37*
G36*
X21697D02*
X21855Y106748D01*
X21996Y106731D01*
X22121Y106706D01*
X22230Y106673D01*
X22305Y106656D01*
X22338Y106648D01*
X22363Y106640D01*
X22371Y106631D01*
X22380D01*
X22530Y106573D01*
X22663Y106498D01*
X22788Y106423D01*
X22888Y106348D01*
X22979Y106273D01*
X23038Y106215D01*
X23079Y106181D01*
X23096Y106165D01*
X23196Y106056D01*
X23279Y105940D01*
X23354Y105823D01*
X23413Y105715D01*
X23463Y105623D01*
X23496Y105557D01*
X23513Y105507D01*
X23521Y105498D01*
Y105490D01*
X23571Y105348D01*
X23604Y105215D01*
X23629Y105082D01*
X23646Y104965D01*
X23663Y104865D01*
X23671Y104782D01*
Y104732D01*
Y104724D01*
Y104715D01*
Y104574D01*
X23654Y104432D01*
X23638Y104299D01*
X23613Y104182D01*
X23596Y104082D01*
X23571Y104007D01*
X23563Y103957D01*
X23554Y103949D01*
Y103941D01*
X23504Y103807D01*
X23438Y103674D01*
X23379Y103566D01*
X23313Y103466D01*
X23263Y103382D01*
X23213Y103316D01*
X23179Y103282D01*
X23171Y103266D01*
X23071Y103157D01*
X22963Y103066D01*
X22854Y102983D01*
X22755Y102916D01*
X22663Y102858D01*
X22596Y102816D01*
X22546Y102791D01*
X22530Y102783D01*
X22380Y102724D01*
X22221Y102683D01*
X22072Y102649D01*
X21930Y102633D01*
X21805Y102616D01*
X21755D01*
X21705Y102608D01*
X21622D01*
X21422Y102616D01*
X21238Y102641D01*
X21072Y102674D01*
X20930Y102708D01*
X20814Y102741D01*
X20722Y102774D01*
X20689Y102791D01*
X20664Y102799D01*
X20655Y102808D01*
X20647D01*
X20489Y102891D01*
X20347Y102999D01*
X20222Y103108D01*
X20106Y103216D01*
X20022Y103316D01*
X19956Y103399D01*
X19931Y103432D01*
X19914Y103457D01*
X19897Y103466D01*
Y103474D01*
X20705Y103866D01*
X20797Y103782D01*
X20889Y103716D01*
X20980Y103657D01*
X21064Y103607D01*
X21138Y103574D01*
X21197Y103549D01*
X21230Y103541D01*
X21247Y103532D01*
X21363Y103507D01*
X21472Y103491D01*
X21572Y103482D01*
X21663Y103474D01*
X21738Y103482D01*
X21797D01*
X21830Y103491D01*
X21847D01*
X21996Y103532D01*
X22055Y103549D01*
X22113Y103582D01*
X22155Y103599D01*
X22188Y103624D01*
X22213Y103632D01*
X22221Y103641D01*
X22330Y103732D01*
X22421Y103832D01*
X22455Y103874D01*
X22471Y103907D01*
X22488Y103924D01*
X22496Y103932D01*
X22571Y104066D01*
X22621Y104182D01*
X22638Y104232D01*
X22655Y104274D01*
X22663Y104299D01*
Y104307D01*
X22696Y104465D01*
X22705Y104532D01*
X22713Y104599D01*
Y104649D01*
Y104699D01*
Y104724D01*
Y104732D01*
X22696Y104915D01*
X22680Y104999D01*
X22663Y105065D01*
X22646Y105123D01*
X22630Y105165D01*
X22613Y105198D01*
Y105207D01*
X22538Y105357D01*
X22496Y105423D01*
X22455Y105473D01*
X22421Y105523D01*
X22396Y105557D01*
X22380Y105573D01*
X22371Y105582D01*
X22246Y105690D01*
X22130Y105773D01*
X22088Y105798D01*
X22047Y105823D01*
X22021Y105840D01*
X22013D01*
X21863Y105898D01*
X21797Y105915D01*
X21730Y105931D01*
X21672Y105940D01*
X21630Y105948D01*
X21597D01*
X21447Y105940D01*
X21380Y105931D01*
X21330Y105923D01*
X21280Y105906D01*
X21247Y105898D01*
X21222Y105890D01*
X21214D01*
X21097Y105840D01*
X21005Y105790D01*
X20972Y105765D01*
X20939Y105748D01*
X20930Y105740D01*
X20922Y105731D01*
X20847Y105657D01*
X20797Y105582D01*
X20764Y105532D01*
X20755Y105515D01*
Y105507D01*
X20739Y105465D01*
X20730Y105423D01*
X20722Y105348D01*
Y105290D01*
X20730Y105282D01*
Y105273D01*
X20747Y105232D01*
X20764Y105198D01*
X20822Y105140D01*
X20864Y105098D01*
X20880Y105082D01*
X20889D01*
X20939Y105057D01*
X20997Y105032D01*
X21122Y104999D01*
X21172Y104990D01*
X21214Y104982D01*
X21247Y104973D01*
X21255D01*
X21472Y104957D01*
X21863D01*
X21980Y104973D01*
X22080Y105007D01*
X22180Y105040D01*
X22255Y105082D01*
X22321Y105115D01*
X22371Y105148D01*
X22405Y105173D01*
X22413Y105182D01*
X22446Y105082D01*
X22471Y104982D01*
X22480Y104890D01*
Y104815D01*
Y104757D01*
X22471Y104707D01*
X22463Y104674D01*
Y104665D01*
X22430Y104582D01*
X22388Y104515D01*
X22338Y104457D01*
X22288Y104399D01*
X22246Y104365D01*
X22205Y104332D01*
X22180Y104315D01*
X22171Y104307D01*
X22080Y104265D01*
X21988Y104224D01*
X21897Y104199D01*
X21805Y104174D01*
X21722Y104157D01*
X21663Y104149D01*
X21622Y104140D01*
X21339D01*
X21214Y104157D01*
X21097Y104174D01*
X20997Y104191D01*
X20914Y104207D01*
X20864Y104215D01*
X20855Y104224D01*
X20847D01*
X20705Y104265D01*
X20580Y104315D01*
X20472Y104374D01*
X20372Y104424D01*
X20305Y104474D01*
X20247Y104515D01*
X20214Y104540D01*
X20206Y104549D01*
X20122Y104632D01*
X20056Y104724D01*
X19997Y104807D01*
X19956Y104890D01*
X19922Y104957D01*
X19906Y105007D01*
X19889Y105048D01*
Y105057D01*
X19864Y105165D01*
X19856Y105265D01*
X19847Y105365D01*
X19856Y105457D01*
X19864Y105532D01*
X19872Y105590D01*
X19881Y105623D01*
Y105640D01*
X19914Y105756D01*
X19956Y105856D01*
X19997Y105948D01*
X20047Y106031D01*
X20089Y106106D01*
X20131Y106156D01*
X20156Y106190D01*
X20164Y106198D01*
X20247Y106290D01*
X20339Y106365D01*
X20430Y106440D01*
X20522Y106498D01*
X20597Y106539D01*
X20664Y106581D01*
X20705Y106598D01*
X20722Y106606D01*
X20855Y106665D01*
X20997Y106706D01*
X21130Y106731D01*
X21255Y106756D01*
X21372Y106764D01*
X21455Y106773D01*
X21538D01*
X21697Y106764D01*
D02*
G37*
G36*
X39590Y108047D02*
X39731Y108031D01*
X39856Y107997D01*
X39956Y107956D01*
X40031Y107914D01*
X40089Y107881D01*
X40131Y107856D01*
X40139Y107847D01*
X40223Y107764D01*
X40289Y107672D01*
X40331Y107572D01*
X40364Y107481D01*
X40381Y107397D01*
X40389Y107331D01*
X40398Y107289D01*
Y107281D01*
Y107273D01*
Y102691D01*
X39431D01*
Y108056D01*
X39590Y108047D01*
D02*
G37*
G36*
X37857D02*
X37999Y108031D01*
X38123Y107997D01*
X38223Y107956D01*
X38298Y107914D01*
X38357Y107881D01*
X38398Y107856D01*
X38407Y107847D01*
X38490Y107764D01*
X38557Y107672D01*
X38598Y107572D01*
X38631Y107481D01*
X38648Y107397D01*
X38656Y107331D01*
X38665Y107289D01*
Y107281D01*
Y107273D01*
Y102691D01*
X37699D01*
Y108056D01*
X37857Y108047D01*
D02*
G37*
G36*
X30593Y106756D02*
X30693Y106739D01*
X30735Y106731D01*
X30768Y106723D01*
X30785Y106714D01*
X30793D01*
X30910Y106681D01*
X31010Y106648D01*
X31051Y106631D01*
X31085Y106614D01*
X31101Y106606D01*
X31109D01*
X31218Y106556D01*
X31301Y106498D01*
X31334Y106473D01*
X31359Y106456D01*
X31376Y106448D01*
X31384Y106440D01*
X31468Y106356D01*
X31526Y106281D01*
X31543Y106248D01*
X31559Y106223D01*
X31568Y106206D01*
Y106656D01*
X32559D01*
Y102691D01*
X31568D01*
Y105457D01*
Y105665D01*
X31526Y105590D01*
X31484Y105523D01*
X31451Y105473D01*
X31434Y105465D01*
Y105457D01*
X31368Y105398D01*
X31310Y105357D01*
X31268Y105340D01*
X31251Y105332D01*
X31243Y105415D01*
X31226Y105490D01*
X31209Y105557D01*
X31176Y105606D01*
X31151Y105648D01*
X31135Y105682D01*
X31118Y105698D01*
X31109Y105707D01*
X31051Y105756D01*
X30985Y105790D01*
X30918Y105815D01*
X30851Y105832D01*
X30793Y105840D01*
X30743Y105848D01*
X30701D01*
X30626Y105840D01*
X30560Y105832D01*
X30493Y105807D01*
X30435Y105790D01*
X30393Y105765D01*
X30360Y105740D01*
X30335Y105731D01*
X30327Y105723D01*
X30268Y105673D01*
X30218Y105615D01*
X30177Y105557D01*
X30143Y105490D01*
X30118Y105440D01*
X30102Y105398D01*
X30093Y105365D01*
Y105357D01*
X30085Y105315D01*
X30077Y105273D01*
X30060Y105173D01*
Y105132D01*
X30052Y105098D01*
Y105073D01*
Y105065D01*
X30043Y104907D01*
X30035Y104832D01*
Y104765D01*
Y104699D01*
Y104649D01*
Y104615D01*
Y104607D01*
X30027Y104415D01*
Y104332D01*
Y104249D01*
Y104174D01*
Y104124D01*
Y104090D01*
Y104074D01*
Y103866D01*
Y103774D01*
Y103691D01*
Y103624D01*
Y103574D01*
Y103532D01*
Y103524D01*
Y103341D01*
Y103258D01*
Y103182D01*
Y103124D01*
Y103083D01*
Y103049D01*
Y103041D01*
Y102958D01*
Y102891D01*
Y102833D01*
Y102783D01*
Y102741D01*
Y102716D01*
Y102699D01*
Y102691D01*
X29044D01*
Y105307D01*
X29060Y105548D01*
X29102Y105756D01*
X29152Y105931D01*
X29219Y106081D01*
X29285Y106198D01*
X29335Y106281D01*
X29360Y106306D01*
X29377Y106331D01*
X29385Y106348D01*
X29394D01*
X29485Y106431D01*
X29577Y106498D01*
X29660Y106556D01*
X29743Y106598D01*
X29810Y106631D01*
X29868Y106656D01*
X29902Y106673D01*
X29918D01*
X30027Y106706D01*
X30127Y106731D01*
X30227Y106748D01*
X30310Y106756D01*
X30385Y106764D01*
X30493D01*
X30593Y106756D01*
D02*
G37*
%LPC*%
G36*
X48648Y98628D02*
X48667Y98619D01*
X48778Y98591D01*
X48889Y98508D01*
X49132Y98362D01*
X48945Y98508D01*
X48778Y98591D01*
X48648Y98628D01*
D02*
G37*
G36*
X48972Y96480D02*
X48945Y96453D01*
X48972D01*
Y96480D01*
D02*
G37*
G36*
X44529Y93620D02*
X44501D01*
X44529Y93606D01*
Y93620D01*
D02*
G37*
G36*
Y93606D02*
Y93592D01*
X44557D01*
X44529Y93606D01*
D02*
G37*
G36*
X44585Y93204D02*
X44557D01*
X44529Y93176D01*
X44557D01*
X44585Y93204D01*
D02*
G37*
G36*
X44640Y92482D02*
X44613D01*
X44599Y92468D01*
X44640Y92482D01*
D02*
G37*
G36*
X42557Y91232D02*
X42585Y91204D01*
X42613D01*
X42557Y91232D01*
D02*
G37*
G36*
X26812Y96397D02*
X26791D01*
X26812Y96342D01*
Y96397D01*
D02*
G37*
G36*
X25757Y96730D02*
X25729D01*
X25701Y96703D01*
X25673Y96647D01*
X25659Y96605D01*
X25646Y96592D01*
Y96564D01*
X25618Y96453D01*
X25590Y96369D01*
X25572Y96277D01*
X25590Y96342D01*
X25618Y96453D01*
X25646Y96480D01*
Y96564D01*
X25659Y96605D01*
X25673Y96619D01*
X25701Y96647D01*
Y96703D01*
X25757Y96730D01*
D02*
G37*
G36*
X25572Y96277D02*
X25534Y96147D01*
X25507Y96092D01*
Y96064D01*
X25562Y96231D01*
X25572Y96277D01*
D02*
G37*
G36*
X32477Y91704D02*
X32421Y91621D01*
X32255Y91426D01*
X32122Y91310D01*
X32088Y91287D01*
X32082Y91275D01*
X32122Y91310D01*
X32255Y91399D01*
X32421Y91593D01*
X32477Y91704D01*
D02*
G37*
G36*
X37281Y95925D02*
X37198D01*
X36892Y95869D01*
X36559Y95786D01*
X36226Y95592D01*
X36087Y95481D01*
X35921Y95314D01*
Y95286D01*
X35865Y95259D01*
X35754Y95092D01*
X35717Y95018D01*
X35809Y95148D01*
X36004Y95370D01*
X36226Y95564D01*
X36531Y95758D01*
X36920Y95869D01*
X36976D01*
X37115Y95897D01*
X37281Y95925D01*
D02*
G37*
G36*
X35504Y94120D02*
Y94092D01*
X35513Y94027D01*
X35504Y94120D01*
D02*
G37*
G36*
X35513Y94027D02*
X35532Y93842D01*
Y93814D01*
X35559Y93759D01*
X35587Y93676D01*
X35615Y93592D01*
X35754Y93315D01*
X35819Y93231D01*
X35782Y93287D01*
X35643Y93537D01*
X35532Y93842D01*
Y93870D01*
Y93898D01*
X35513Y94027D01*
D02*
G37*
G36*
X38364Y92676D02*
X38281Y92537D01*
X38253Y92482D01*
X38207Y92361D01*
X38225Y92398D01*
X38253Y92454D01*
Y92482D01*
X38309Y92565D01*
X38364Y92676D01*
D02*
G37*
G36*
X38207Y92361D02*
X38170Y92287D01*
X38114Y92148D01*
X38031Y91815D01*
X38012Y91695D01*
X38003Y91649D01*
Y91635D01*
X38012Y91695D01*
X38031Y91787D01*
X38114Y92121D01*
X38207Y92361D01*
D02*
G37*
G36*
X45829Y94537D02*
X45807Y94481D01*
X45779Y94342D01*
Y94314D01*
Y94287D01*
Y94148D01*
Y93953D01*
Y93870D01*
X45807Y94203D01*
Y94425D01*
X45829Y94537D01*
D02*
G37*
G36*
X45807Y91149D02*
X45779D01*
X45834Y91121D01*
X45807Y91149D01*
D02*
G37*
G36*
X34115Y98563D02*
X34088D01*
X34060Y98535D01*
X33893Y98424D01*
X33727Y98258D01*
X33647Y98131D01*
X33727Y98230D01*
X33893Y98397D01*
X34115Y98563D01*
D02*
G37*
G36*
X33647Y98131D02*
X33616Y98091D01*
X33588Y98063D01*
Y98036D01*
X33647Y98131D01*
D02*
G37*
G36*
X37503Y97536D02*
X37142D01*
X37448Y97508D01*
X37503Y97147D01*
Y97536D01*
D02*
G37*
G36*
X37448Y97508D02*
X37142D01*
Y96786D01*
X37448D01*
Y97147D01*
Y97508D01*
D02*
G37*
G36*
X39892Y96564D02*
Y96536D01*
X39919Y96508D01*
X39892Y96564D01*
D02*
G37*
G36*
X34754Y96592D02*
X34615Y96480D01*
X34532Y96342D01*
X34643Y96453D01*
X34754Y96592D01*
D02*
G37*
G36*
X39836Y96564D02*
Y96536D01*
Y96508D01*
X39781Y96480D01*
X39739Y96453D01*
X39697Y96397D01*
X39614Y96314D01*
X39586Y96286D01*
Y96314D01*
X39642Y96369D01*
X39697Y96425D01*
X39739Y96453D01*
X39781Y96508D01*
X39836Y96564D01*
X39808D01*
X39753Y96480D01*
X39725D01*
X39669Y96425D01*
X39531Y96314D01*
X39308Y96036D01*
X39392Y95897D01*
X39419Y95869D01*
X39447D01*
X39475Y95842D01*
X39503Y95814D01*
X39531D01*
X39503Y95842D01*
X39392Y95953D01*
X39308Y96036D01*
X39586Y96286D01*
X39336Y96036D01*
X39392Y95953D01*
X39475Y95897D01*
X39503Y95869D01*
X39531Y95842D01*
X39614Y95897D01*
X39669Y95981D01*
X39725Y96036D01*
X39781Y96092D01*
X39808Y96119D01*
X40086Y96342D01*
X39808Y96064D01*
X39781Y96036D01*
X39697Y95953D01*
X39669D01*
X39642Y95925D01*
X39586Y95842D01*
X39558D01*
X39531Y95814D01*
X39586Y95842D01*
X39642Y95869D01*
X39669Y95897D01*
X39697Y95925D01*
X39836Y96064D01*
X40114Y96342D01*
X39975Y96453D01*
X39919Y96480D01*
X39892Y96508D01*
Y96536D01*
X39836Y96564D01*
D02*
G37*
G36*
X37420Y96286D02*
X37198D01*
X36948Y96258D01*
X37614D01*
X37420Y96286D01*
D02*
G37*
G36*
X37725Y96258D02*
X37670D01*
X37864Y96203D01*
X37920Y96175D01*
X37938D01*
X37864Y96203D01*
X37725Y96258D01*
D02*
G37*
G36*
X34810Y96064D02*
X34782D01*
X34828Y96027D01*
X34810Y96064D01*
D02*
G37*
G36*
X34828Y96027D02*
X34837Y96008D01*
X34976Y95869D01*
X35032Y95842D01*
X35004Y95869D01*
X34921Y95953D01*
X34828Y96027D01*
D02*
G37*
G36*
X34754Y96564D02*
X34643Y96453D01*
X34560Y96342D01*
X34782Y96119D01*
X34921Y95981D01*
X34976Y95925D01*
X35004Y95897D01*
X35060Y95842D01*
X35087Y95869D01*
X35115Y95897D01*
X35171Y95925D01*
X35143Y95897D01*
X35087Y95842D01*
X35060Y95814D01*
X35087D01*
X35143Y95842D01*
X35171Y95869D01*
X35199Y95897D01*
X35337Y96036D01*
X35032Y96314D01*
X34754Y96564D01*
D02*
G37*
G36*
X36948Y96258D02*
X36892D01*
X36754Y96203D01*
X36531Y96119D01*
X36254Y95981D01*
X35976Y95814D01*
X35698Y95564D01*
X35476Y95231D01*
X35643Y95453D01*
X35893Y95703D01*
X36170Y95925D01*
X36531Y96119D01*
X36948Y96258D01*
D02*
G37*
G36*
X35476Y95231D02*
X35365Y95036D01*
X35400Y95078D01*
X35476Y95231D01*
D02*
G37*
G36*
X39419Y94037D02*
X39401Y93935D01*
X39419Y94009D01*
Y94037D01*
D02*
G37*
G36*
X39401Y93935D02*
X39392Y93898D01*
Y93884D01*
X39372Y93775D01*
X39392Y93814D01*
Y93884D01*
X39401Y93935D01*
D02*
G37*
G36*
X39372Y93775D02*
X39367Y93765D01*
X39364Y93731D01*
X39372Y93775D01*
D02*
G37*
G36*
X35199Y93787D02*
X35226Y93620D01*
Y93592D01*
X35245Y93574D01*
X35226Y93620D01*
Y93648D01*
X35199Y93787D01*
D02*
G37*
G36*
X35245Y93574D02*
X35337Y93342D01*
X35476Y93120D01*
X35559Y92981D01*
X35590Y92966D01*
X35615Y92926D01*
Y92954D01*
X35590Y92966D01*
X35476Y93148D01*
X35337Y93370D01*
X35254Y93565D01*
X35245Y93574D01*
D02*
G37*
G36*
X35615Y92926D02*
X35719Y92801D01*
X35698Y92843D01*
X35643Y92898D01*
X35615Y92926D01*
D02*
G37*
G36*
X40975Y91732D02*
X40951Y91692D01*
X40975Y91704D01*
Y91732D01*
D02*
G37*
G36*
X26145Y94120D02*
X26062D01*
X26021Y94110D01*
X26145Y94120D01*
D02*
G37*
G36*
X26021Y94110D02*
X25812Y94092D01*
X25534Y94037D01*
X25257Y93953D01*
X25090Y93842D01*
X25257Y93926D01*
X25285D01*
X25340Y93953D01*
X25423Y93981D01*
X25534Y94009D01*
X25812Y94092D01*
X25951D01*
X26021Y94110D01*
D02*
G37*
G36*
X25451Y91399D02*
X25479Y91371D01*
X25590Y91287D01*
X25618Y91260D01*
X25646D01*
X25451Y91399D01*
D02*
G37*
G36*
X41521Y89816D02*
X41586Y89760D01*
X41558Y89788D01*
X41521Y89816D01*
D02*
G37*
G36*
X41697Y89649D02*
X41835Y89455D01*
Y89427D01*
X41863Y89371D01*
X41835Y89455D01*
X41808Y89510D01*
X41724Y89621D01*
X41697Y89649D01*
D02*
G37*
G36*
X41766Y87025D02*
X41752Y87011D01*
Y86983D01*
X41766Y87025D01*
D02*
G37*
G36*
X41752Y86983D02*
X41724Y86955D01*
X41706Y86918D01*
X41613Y86789D01*
X41697Y86900D01*
X41706Y86918D01*
X41752Y86983D01*
D02*
G37*
G36*
X37587Y89038D02*
X37337D01*
X37531Y89010D01*
X37698Y88982D01*
X37864D01*
X37781Y89010D01*
X37698D01*
X37587Y89038D01*
D02*
G37*
G36*
X37559Y88594D02*
X37226D01*
X37337Y88566D01*
X36559D01*
Y87650D01*
X36531Y86678D01*
Y86650D01*
X37531D01*
X37614Y86678D01*
X37670D01*
X37698Y86705D01*
X37753Y86733D01*
X37809Y86761D01*
X37864Y86817D01*
Y86844D01*
X37920Y86900D01*
X37975Y87094D01*
Y87122D01*
Y87233D01*
Y87261D01*
X37948Y87150D01*
Y87094D01*
Y87066D01*
X37920Y87011D01*
X37892Y86928D01*
X37920Y87039D01*
X37948Y87316D01*
X37975Y87483D01*
Y87594D01*
Y87677D01*
Y87705D01*
X37948Y88261D01*
X37864Y88399D01*
X37809Y88455D01*
X37892Y88399D01*
X37864Y88427D01*
X37809Y88483D01*
X37753Y88538D01*
X37698Y88566D01*
X37670D01*
X37559Y88594D01*
D02*
G37*
G36*
X38447Y88344D02*
X38475Y88233D01*
Y88288D01*
X38447Y88344D01*
D02*
G37*
%LPD*%
G36*
X37614Y88538D02*
X37698D01*
X37753Y88483D01*
X37698Y88511D01*
X37448Y88566D01*
X37531D01*
X37614Y88538D01*
D02*
G37*
G36*
X37781Y86789D02*
X37725Y86733D01*
X37670Y86705D01*
X37531D01*
X37365Y86678D01*
X37281D01*
X37448Y86705D01*
X37587Y86733D01*
X37698Y86761D01*
X37837Y86817D01*
X37781Y86789D01*
D02*
G37*
D10*
X20797Y71762D02*
Y77038D01*
X14104Y71762D02*
Y77038D01*
X38192Y30442D02*
Y48158D01*
X12208Y30442D02*
Y48158D01*
D11*
X83750Y91150D02*
Y90150D01*
X83250D01*
X83084Y90317D01*
Y90483D01*
X83250Y90650D01*
X83750D01*
X83250D01*
X83084Y90816D01*
Y90983D01*
X83250Y91150D01*
X83750D01*
X82750Y90150D02*
Y90816D01*
X82417Y91150D01*
X82084Y90816D01*
Y90150D01*
Y90650D01*
X82750D01*
X81751Y91150D02*
X81084D01*
X81417D01*
Y90150D01*
X80751D02*
X80418D01*
X80584D01*
Y91150D01*
X80751Y90983D01*
X27950Y71000D02*
X26950D01*
Y70500D01*
X27117Y70334D01*
X27450D01*
X27617Y70500D01*
Y71000D01*
Y70667D02*
X27950Y70334D01*
Y69334D02*
Y70000D01*
X27284Y69334D01*
X27117D01*
X26950Y69500D01*
Y69834D01*
X27117Y70000D01*
X9167Y31177D02*
X10000D01*
X10167Y31011D01*
Y30677D01*
X10000Y30511D01*
X9167D01*
X10167Y30178D02*
Y29844D01*
Y30011D01*
X9167D01*
X9334Y30178D01*
X11900Y82000D02*
X10900D01*
Y81500D01*
X11067Y81334D01*
X11400D01*
X11567Y81500D01*
Y82000D01*
Y81667D02*
X11900Y81334D01*
X11067Y81000D02*
X10900Y80834D01*
Y80501D01*
X11067Y80334D01*
X11233D01*
X11400Y80501D01*
Y80667D01*
Y80501D01*
X11567Y80334D01*
X11733D01*
X11900Y80501D01*
Y80834D01*
X11733Y81000D01*
X36700Y18200D02*
Y19200D01*
X36200D01*
X36034Y19033D01*
Y18700D01*
X36200Y18533D01*
X36700D01*
X36367D02*
X36034Y18200D01*
X35700D02*
X35367D01*
X35534D01*
Y19200D01*
X35700Y19033D01*
D35*
X120020Y60000D02*
X120007Y61001D01*
X119969Y62002D01*
X119905Y63002D01*
X119816Y63999D01*
X119702Y64994D01*
X119562Y65986D01*
X119397Y66974D01*
X119208Y67957D01*
X118993Y68935D01*
X118753Y69907D01*
X118489Y70873D01*
X118200Y71832D01*
X117887Y72783D01*
X117550Y73726D01*
X117189Y74660D01*
X116804Y75585D01*
X116396Y76500D01*
X115964Y77403D01*
X115510Y78296D01*
X115034Y79177D01*
X114535Y80045D01*
X114014Y80901D01*
X113472Y81743D01*
X112908Y82570D01*
X112323Y83384D01*
X111718Y84182D01*
X111093Y84964D01*
X110449Y85730D01*
X109784Y86480D01*
X109101Y87212D01*
X108400Y87927D01*
X107681Y88624D01*
X106944Y89302D01*
X106190Y89961D01*
X105420Y90601D01*
X104633Y91222D01*
X103832Y91821D01*
X103015Y92401D01*
X102183Y92959D01*
X101338Y93496D01*
X100479Y94012D01*
X99608Y94505D01*
X98724Y94976D01*
X97829Y95424D01*
X96922Y95850D01*
X96005Y96252D01*
X95078Y96631D01*
X94142Y96986D01*
X93196Y97317D01*
X92243Y97624D01*
X91282Y97907D01*
X90315Y98165D01*
X89341Y98399D01*
X88361Y98607D01*
X87377Y98791D01*
X86388Y98950D01*
X85396Y99083D01*
X84400Y99191D01*
X83402Y99274D01*
X82402Y99331D01*
X81401Y99363D01*
X80400Y99369D01*
X79398Y99350D01*
X78398Y99305D01*
X77399Y99235D01*
X76402Y99140D01*
X75408Y99019D01*
X74417Y98874D01*
X73430Y98702D01*
X72448Y98506D01*
X71472Y98285D01*
X70501Y98039D01*
X69536Y97769D01*
X68579Y97474D01*
X67630Y97155D01*
X66689Y96812D01*
X65757Y96445D01*
X64835Y96054D01*
X63923Y95640D01*
X63022Y95203D01*
X62133Y94743D01*
X61255Y94261D01*
X60390Y93757D01*
X59538Y93230D01*
X58699Y92683D01*
X57875Y92114D01*
X57066Y91524D01*
X56271Y90914D01*
X55493Y90284D01*
X54731Y89634D01*
X53986Y88965D01*
X53257Y88278D01*
X52547Y87572D01*
X51855Y86848D01*
X51181Y86107D01*
X50527Y85349D01*
X49892Y84575D01*
X49277Y83785D01*
X48682Y82979D01*
X48108Y82158D01*
X47554Y81323D01*
X47023Y80475D01*
X46513Y79613D01*
X46025Y78738D01*
X45560Y77851D01*
X45117Y76953D01*
X44697Y76044D01*
X44301Y75124D01*
X43928Y74195D01*
X43579Y73256D01*
X43254Y72309D01*
X42953Y71354D01*
X42676Y70391D01*
X42424Y69422D01*
X42197Y68447D01*
X41994Y67466D01*
X41817Y66480D01*
X41665Y65490D01*
X41538Y64497D01*
X41436Y63501D01*
X41360Y62502D01*
X41309Y61502D01*
X41283Y60501D01*
X41283Y59499D01*
X41309Y58498D01*
X41360Y57498D01*
X41436Y56499D01*
X41538Y55503D01*
X41665Y54510D01*
X41817Y53520D01*
X41994Y52534D01*
X42197Y51553D01*
X42424Y50578D01*
X42676Y49609D01*
X42953Y48646D01*
X43254Y47691D01*
X43579Y46744D01*
X43928Y45805D01*
X44301Y44876D01*
X44697Y43956D01*
X45117Y43047D01*
X45560Y42149D01*
X46025Y41262D01*
X46513Y40387D01*
X47023Y39525D01*
X47554Y38677D01*
X48107Y37842D01*
X48682Y37021D01*
X49276Y36216D01*
X49892Y35425D01*
X50527Y34651D01*
X51181Y33893D01*
X51855Y33152D01*
X52547Y32428D01*
X53257Y31722D01*
X53985Y31035D01*
X54731Y30366D01*
X55493Y29716D01*
X56271Y29086D01*
X57065Y28476D01*
X57875Y27886D01*
X58699Y27317D01*
X59538Y26770D01*
X60390Y26243D01*
X61255Y25739D01*
X62132Y25257D01*
X63022Y24797D01*
X63923Y24360D01*
X64835Y23946D01*
X65757Y23555D01*
X66689Y23188D01*
X67630Y22845D01*
X68579Y22526D01*
X69536Y22231D01*
X70500Y21961D01*
X71471Y21715D01*
X72448Y21494D01*
X73430Y21298D01*
X74417Y21126D01*
X75408Y20981D01*
X76402Y20860D01*
X77399Y20764D01*
X78398Y20695D01*
X79398Y20650D01*
X80400Y20631D01*
X81401Y20637D01*
X82402Y20669D01*
X83402Y20726D01*
X84400Y20809D01*
X85395Y20917D01*
X86388Y21050D01*
X87377Y21209D01*
X88361Y21393D01*
X89341Y21601D01*
X90315Y21835D01*
X91282Y22093D01*
X92243Y22376D01*
X93196Y22683D01*
X94141Y23014D01*
X95078Y23369D01*
X96005Y23748D01*
X96922Y24150D01*
X97829Y24576D01*
X98724Y25024D01*
X99608Y25495D01*
X100479Y25988D01*
X101338Y26504D01*
X102183Y27041D01*
X103015Y27599D01*
X103832Y28178D01*
X104633Y28778D01*
X105420Y29399D01*
X106190Y30038D01*
X106944Y30698D01*
X107681Y31376D01*
X108400Y32073D01*
X109101Y32788D01*
X109784Y33520D01*
X110449Y34270D01*
X111093Y35036D01*
X111718Y35818D01*
X112323Y36616D01*
X112908Y37430D01*
X113472Y38257D01*
X114014Y39099D01*
X114535Y39955D01*
X115034Y40823D01*
X115510Y41704D01*
X115964Y42596D01*
X116396Y43500D01*
X116804Y44415D01*
X117189Y45339D01*
X117550Y46273D01*
X117887Y47216D01*
X118200Y48168D01*
X118489Y49127D01*
X118753Y50093D01*
X118993Y51065D01*
X119208Y52043D01*
X119397Y53026D01*
X119562Y54014D01*
X119702Y55006D01*
X119816Y56001D01*
X119905Y56998D01*
X119969Y57998D01*
X120007Y58999D01*
X120020Y60000D01*
D36*
X13783Y55835D02*
X12995D01*
X13783D01*
M02*
