G04*
G04 #@! TF.GenerationSoftware,Altium Limited,Altium Designer,19.1.7 (138)*
G04*
G04 Layer_Color=32768*
%FSLAX25Y25*%
%MOIN*%
G70*
G01*
G75*
%ADD11C,0.00200*%
%ADD38C,0.00010*%
%ADD39C,0.00197*%
D11*
X36120Y57473D02*
Y71827D01*
X28380Y57473D02*
Y71827D01*
Y57473D02*
X36120D01*
X28380Y71827D02*
X36120D01*
D38*
X80550Y58270D02*
X80750Y58070D01*
D39*
X37648Y11906D02*
Y17694D01*
X26152Y11906D02*
Y17694D01*
Y11906D02*
X37648D01*
X26152Y17694D02*
X37648D01*
X13060Y65680D02*
Y83121D01*
X21840Y65680D02*
Y83121D01*
X13060Y65680D02*
X21840D01*
X13060Y83121D02*
X21840D01*
X11893Y54694D02*
X38507D01*
Y49143D02*
Y54694D01*
Y49143D02*
X39176D01*
Y29458D02*
Y49143D01*
X38507Y29458D02*
X39176D01*
X38507Y23906D02*
Y29458D01*
X11893Y23906D02*
X38507D01*
X11893D02*
Y29458D01*
X11224D02*
X11893D01*
X11224D02*
Y49143D01*
X11893D01*
Y54694D01*
X66937Y8521D02*
Y14379D01*
X55363D02*
X66937D01*
X55363Y8521D02*
Y14379D01*
Y8521D02*
X66937D01*
X23071Y58355D02*
Y65245D01*
X6929D02*
X23071D01*
X6929Y58355D02*
Y65245D01*
Y58355D02*
X23071D01*
X45755Y91769D02*
X63945D01*
X45755D02*
Y100431D01*
X63945D01*
Y91769D02*
Y100431D01*
M02*
